<?xml version="1.0" encoding="utf-8"?>
<!-- Generator: Adobe Illustrator 12.0.0, SVG Export Plug-In . SVG Version: 6.00 Build 51448)  -->
<!DOCTYPE svg PUBLIC "-//W3C//DTD SVG 1.1//EN" "http://www.w3.org/Graphics/SVG/1.1/DTD/svg11.dtd" [
	<!ENTITY ns_svg "http://www.w3.org/2000/svg">
	<!ENTITY ns_xlink "http://www.w3.org/1999/xlink">
]>
<svg  version="1.1" id="Layer_1" xmlns="&ns_svg;" xmlns:xlink="&ns_xlink;" width="6000" height="2300" viewBox="0 0 6000 2300"
	 overflow="visible" enable-background="new 0 0 6000 2300" xml:space="preserve">
<g>
	<linearGradient id="XMLID_5_" gradientUnits="userSpaceOnUse" x1="3000.0005" y1="1098.1304" x2="3000.0005" y2="-18.4304">
		<stop  offset="0.3378" style="stop-color:#FBFCFE"/>
		<stop  offset="0.3412" style="stop-color:#FBFCFE"/>
		<stop  offset="1" style="stop-color:#9FB3D8"/>
	</linearGradient>
	<rect fill="url(#XMLID_5_)" width="6000" height="2300"/>
	<defs>
		<filter id="Adobe_OpacityMaskFilter" filterUnits="userSpaceOnUse" x="1524.138" y="172.419" width="1085.601" height="1085.601">
			<feFlood  style="flood-color:white;flood-opacity:1" result="back"/>
			<feBlend  in="SourceGraphic" in2="back" mode="normal"/>
		</filter>
	</defs>
	<mask maskUnits="userSpaceOnUse" x="1524.138" y="172.419" width="1085.601" height="1085.601" id="XMLID_6_">
		<g filter="url(#Adobe_OpacityMaskFilter)">
			<defs>
				
					<filter id="Adobe_OpacityMaskFilter_1_" filterUnits="userSpaceOnUse" x="1524.138" y="172.419" width="1085.601" height="1085.601">
					<feFlood  style="flood-color:white;flood-opacity:1" result="back"/>
					<feBlend  in="SourceGraphic" in2="back" mode="normal"/>
				</filter>
			</defs>
			<mask maskUnits="userSpaceOnUse" x="1524.138" y="172.419" width="1085.601" height="1085.601" id="XMLID_6_">
				<g filter="url(#Adobe_OpacityMaskFilter_1_)">
				</g>
			</mask>
			<radialGradient id="XMLID_1_" cx="2066.9385" cy="715.2197" r="542.8005" gradientUnits="userSpaceOnUse">
				<stop  offset="0.7933" style="stop-color:#FFFFFF"/>
				<stop  offset="0.8371" style="stop-color:#B7B7B7"/>
				<stop  offset="0.8808" style="stop-color:#767676"/>
				<stop  offset="0.9204" style="stop-color:#434343"/>
				<stop  offset="0.9546" style="stop-color:#1F1F1F"/>
				<stop  offset="0.9823" style="stop-color:#080808"/>
				<stop  offset="1" style="stop-color:#000000"/>
			</radialGradient>
			<circle mask="url(#XMLID_6_)" fill="url(#XMLID_1_)" cx="2066.938" cy="715.22" r="542.8"/>
		</g>
	</mask>
	<radialGradient id="XMLID_2_" cx="2066.9385" cy="715.2197" r="542.8005" gradientUnits="userSpaceOnUse">
		<stop  offset="0.7933" style="stop-color:#FEFCFB"/>
		<stop  offset="0.8439" style="stop-color:#EFF1F6"/>
		<stop  offset="0.9391" style="stop-color:#D9E1F0"/>
		<stop  offset="1" style="stop-color:#D1DBED"/>
	</radialGradient>
	<circle fill="url(#XMLID_2_)" cx="2066.938" cy="715.22" r="542.8"/>
	<path fill="#CCDDF1" d="M6000,757.7V2300H0V945.89l116.61-62.27l34.19-19.5l64.46-36.77l40.7-39.13L292.09,730
		c0,0,70.97-57.14,80.27-65.04c0.01-0.01,0.02-0.02,0.05-0.05c1.09-0.93,3.23-2.95,6.17-5.78c15.99-15.46,55.55-55.33,78.41-78.5
		c9.42-9.54,16-16.25,16.94-17.26c3.64-3.92,60.64-53.76,60.64-53.76L605,447l118.06-57.36l88.55-44.38l85.61-38.05l61.521-32.38
		c0,0,62.61-21.92,67.3-23.48c4.7-1.57,46.06,37.92,51.7,42.84c5.65,4.92,115.78,49.51,115.78,49.51l88.8,46.21l209.399,134.97
		l158.851,73.71l159.649,105.89l157.3,100.95c0,0,160.42-0.43,169.98-2.56c9.51-2.12,284.81-141.7,286.96-142.79l0.01-0.01
		l85.4,2.15l89.18-88.95l200.01-84.79l161.59-58.7l82.18,82.18l163.33,132.62l59.88,32.19l20.96,11.27l122.09,86.87l82.17,39.92
		l49.061,18.02l171.64-86.11l252.101-43.6l137.64-71.44c0,0,143.909-44.64,152.6-33.11c2.591,3.44,23.29,1.1,51.091-3.87
		c65.569-11.729,170.649-38.15,170.649-38.15l108.06-7.8l130.931,68.85l40.159,21.12l2.311,0.7l146.141,44.31l125.199,37.96
		l251.46-83.44l145.57-84.05l208.96-56.35l77.47,30.52l150.271,126.78L6000,757.7z"/>
	<path fill="#9CB4D8" d="M6000,1137.54V2300H0V985.6l139.61-15.25L317,954.13l117.39-54.78l164.86-48.91
		c0,0,107.74-6.98,112.21-5.98c4.47,1,121,10.21,121,10.21l103.76-55.5l157.13-37.56l139.31-40.73l120.51,43.86L1469,839.87
		l146.7,123.65l110,61.05l148.69,48.52l173.74-14.09l159.35-15.23l180.3,4.27c0,0,39.53-30.17,122.09-41.19
		c82.56-11.02,159.93-49.8,184.7-48.02c24.76,1.77,234.78-12.53,234.78-12.53l82.3,49.94l90.27,46.3l7.59,3.1l67.141,27.45
		l196.38,35.62h0.01l35.36,6.41c0,0,192.43,9.62,197.119,9.62c4.7,0,212.931-63.8,221.65-66.63
		c8.73-2.82,236.96-103.98,236.96-103.98l186.261-90.78l199.209-14.4l165.49-82.65l119.74,38.35
		c13.02,10.5,89.2,62.26,148.029,101.97c39.201,26.45,70.701,47.56,70.701,47.56l235.369,13.73l128.94-29.43
		c0,0,112.7-12.52,129.91,1.56c0.02,0.01,0.03,0.03,0.05,0.04c17.35,14.2,111.779,93.15,111.779,93.15l203.031,46.78l104.879,5.57
		l3,0.16L6000,1137.54z"/>
	<path fill="#49628A" d="M6000,1281.17V2300H0V1208.33l122.09,8.91c0,0,131.52-5.63,319.34-22.07
		c67.71-5.92,126.53-16.42,174.79-27.65h0.05c85.6-19.919,137.81-42.12,146.82-45.129c14.08-4.69,185.11-16.96,185.11-16.96
		s18.2,1.37,43.84,3.5h0.01c47.11,3.92,119.35,10.44,150.06,15.88c47.43,8.41,192.05-11.81,239.91-5.94
		c30.59,3.75,108.8-10.78,166.85-23.7h0.04c32.75-7.3,59.06-14.09,66.79-16.8c21.45-7.5,186.9-63.06,186.9-63.06l171.98-7.71
		l135.82,45.45l124.14,78.21l81.22,51.17c0,0,215.24,50.311,222.28,52.66c7.05,2.34,356.99,7.79,356.99,7.79s1.88-0.31,5.35-0.87
		c42.99-7.02,330.8-54.06,337.32-56.229c7.04-2.351,299.61-96.05,299.61-96.05l108.489-42.09c0,0,149.03,27.58,160.07,20.75
		c11.04-6.82,336.42,103.19,336.42,103.19s138.64,0.18,255.229,0.21c82.211,0.03,153.461-0.01,157.41-0.229
		c9.471-0.541,203.43-45.61,206.461-46.311l0.039-0.01l171.4,41.76l240.609,35.12l221.91-52.12l150.26,17l200.181,49.1L6000,1281.17
		z"/>
	<path fill="#31486A" d="M6000,1514.48V2300H0V1275.65l120.49,54.93l63.47,28.939c0,0,29.55,22.17,184.85,34.91
		c4.53,0.37,9.18,0.73,13.93,1.09c167.479,12.521,179.82,13.221,261.06,10.53c3.35-0.11,6.34-0.22,9.02-0.319l17.4,4.01l21.99-0.58
		l0.01-0.01c14.31,1.97,39.14,4.66,81.82,8.279c175.71,14.91,361.57,7.83,361.57,7.83s151.64-22.029,179.12-18.84
		c27.49,3.19,126.1-9.33,141.75-9.33s225.47-71.56,225.47-71.56s30.16-11.05,61-16.69c22-4.029,44.34-5.3,56.31,2.16
		c28.76,17.91,182.35,76.7,182.35,76.7s74.32,60.7,122.86,70.26c48.53,9.56,95.49,42.43,145.57,64.34
		c43.73,19.14,93.88,25.64,120.51,50.65c3.88,3.649,7.25,7.68,10.04,12.2c21.93,35.59,70.9,68.279,70.9,68.279l234.46,33.23
		l266.8,29.8l212.95,42.19c0,0,189.39,10.96,194.08,10.96c4.7,0,132.76-3.471,132.76-3.471l71.38-44.75l43.17-0.3l20.34-9.39
		l75.021-16.48c0,0,43.159-26.569,46.29-26.569c3.13,0,35.22,11.739,35.22,11.739l45.39,33.65c0,0,2.69,1.729,6.9,4.43l0.01,0.011
		c14.061,9.01,45.08,28.83,49.61,31.13c5.89,2.979,54.14,33.51,62.86,35.75c8.709,2.25,60.449,11.46,60.449,11.46
		s59.41,8.199,61.601,7.16c2.189-1.051,43.64-30.36,43.64-30.36l51.87-23.51l81.75-10.24l51.08-22.021l0.05-0.02l0.68-0.29
		l1.7-0.979l0.271-0.15h0.01l46.39-26.63l62.61-14.87l135.39,30.52l37.101,19.381l99.07,19.76c0,0,57.909,18,63.39,19.56
		c5.479,1.57,206.61,15.101,206.61,15.101L5203,1759.71l79-50.36c0.01,0,0.01,0,0.02,0l60.891-1.569l95.48-8.61l2.31-0.82
		l151.93-53.859l54.979-24.391l71.65-35.5l54.87-5.949l15.55-28.011l135.86-38.439L6000,1514.48z"/>
	<path fill="#112235" d="M6000,1848.311V2300H0v-374.28l185.27,5.83l139.68-21.81c0,0,128.28-16.33,254.81-33.23
		c125.54-16.77,261.02-37.699,263.13-38.02l0.02-0.01l157.31-84.521c0,0,240.771,8.24,253.561,18.78
		c12.31,10.13,228.52,22.85,266.149,28.689c1.49,0.23,2.69,0.45,3.6,0.66c23.82,5.49,285.98,82.19,285.98,82.19
		s249.58,12.89,266.01,17.59c16.44,4.7,256.41,9.5,256.41,9.5l172.391-53.13l148.01-57.33l271.96-73.5l52.8-46.24l178.43-27.37
		l183.131-19.58l154.959,100.95L3719,1829.09c0,0,319.3,32.87,392.09,35.21c72.78,2.351,211.301,4.7,286.43,4.7
		c75.131,0,183.34,9.39,183.34,9.39l368.4-58.689l144.65-84.95l182.31,38.17l159.04,9.96c0,0,119.971,27.46,159.37,34.47
		c39.4,7.011,178.82,23.141,178.82,23.141l8.239,0.279h0.011L6000,1848.311z"/>
	<path opacity="0.27" fill="#FFFFFF" d="M1026.04,251.35l-9.39,43.43l-62.22,25.83L896.91,330c0,0-19.95,34.04-25.82,39.91
		c-5.87,5.87-54,25.83-64.57,29.35c-10.56,3.52-69.26,9.39-69.26,9.39L605,447l118.06-57.36l88.55-44.38l85.61-38.05l61.521-32.38
		C958.74,274.83,1021.35,252.91,1026.04,251.35z"/>
	<path opacity="0.27" fill="#FFFFFF" d="M456.99,580.63l-81.29,126.2l-62.22,46.95l-19.96,37.57l-44.61,27L232.48,843l-81.68,21.12
		l64.46-36.77l40.7-39.13L292.09,730c0,0,70.97-57.14,80.27-65.04c0.01-0.01,0.02-0.02,0.05-0.05c1.09-0.93,3.23-2.95,6.17-5.78
		C394.57,643.67,434.13,603.8,456.99,580.63z"/>
	<path opacity="0.27" fill="#FFFFFF" d="M1253,600.391l-129.13-43.826c0,0-55.565-19.565-58.696-21.913
		c-3.13-2.348-68.87-3.131-68.87-3.131l-64.174,40.696c0,0-54.783,23.478-62.609,28.174c-7.826,4.696-40.695,7.826-40.695,7.826
		l-51.652,42.261L619.087,715.22l97.043-20.916l90.783-40.695c0,0,56.348-10.957,61.043-12.522s70.435-7.826,75.13-9.392
		c4.696-1.565,101.739-61.043,101.739-61.043l23.478-10.174l29.739,9.391l100.174,28.957l100.174,28.957L1253,600.391z"/>
	<path opacity="0.27" fill="#FFFFFF" d="M2424.46,660.08l-36.68,81.18l-144,32.87l-85.28,62.61h-86.89l-104.09-31.31
		c0,0,160.42-0.43,169.98-2.56C2147.01,800.75,2422.31,661.17,2424.46,660.08z"/>
	<polygon opacity="0.06" points="3266.04,676.77 3231.43,672.39 3162.57,634.83 3073.35,594.13 3020.13,575.35 3000,504.91 
		2960.65,429.78 3042.83,511.96 3206.16,644.58 	"/>
	<polygon opacity="0.27" fill="#FFFFFF" points="3964.061,703.14 3924.43,732.65 3829.35,757.3 3719,777.26 3663.83,813.65 
		3540.32,832.85 3711.96,746.74 	"/>
	<path opacity="0.27" fill="#FFFFFF" d="M4584.1,548.77l-51.189,35.97l-65.74,4.69l-87.65,14.87l-74.129-9.58
		c65.569-11.729,170.649-38.15,170.649-38.15L4584.1,548.77z"/>
	<polygon opacity="0.27" fill="#FFFFFF" points="5425.87,554.22 5413.35,598.83 5371.87,639.52 5313.17,650.68 5288.91,679.43 
		5227.09,702.13 5169.96,720.88 5028.84,721.71 5280.3,638.27 	"/>
	<polygon opacity="0.27" fill="#FFFFFF" points="2646.043,819.521 2760.304,780.391 2793.174,748.41 2850.304,728.739 
		2910.565,715.22 3092.131,799.957 2995.87,778.043 2955.957,760.043 2888.652,777.261 2822.13,774.913 2760.304,801.521 	"/>
	<path opacity="0.27" fill="#FFFFFF" d="M4165.088,799.174c0,0,75.912-55.565,79.043-57.13c3.13-1.565,50.869-20.333,50.869-20.333
		l39.913-21.927l30.521,15.652l89.218,30.522l-104.869-15.652c0,0-38.349,1.565-39.914,3.13
		c-1.564,1.565-56.348,33.903-59.479,34.561C4247.261,768.652,4165.088,799.174,4165.088,799.174z"/>
	<polygon opacity="0.27" fill="#FFFFFF" points="619.09,872.35 611.65,897 487.22,921.65 398,928.7 317,954.13 434.39,899.35 
		599.25,850.44 	"/>
	<polygon opacity="0.27" fill="#FFFFFF" points="1232.66,720.88 1085.52,785.87 1027.61,810.13 914.91,825.39 891.43,854.67 
		832.46,854.67 936.22,799.17 1093.35,761.61 	"/>
	<polygon opacity="0.15" fill="#005F89" points="1725.7,1024.57 1642.74,1055.09 1551.17,1074.65 1623.35,1030.83 1631,997.96 
		1615.7,963.52 	"/>
	<path opacity="0.27" fill="#FFFFFF" d="M2929.35,946.3l-234,32.09l-77.48,29.21l-66.52,19.31l-55.6,21.13h-107.97
		c0,0,39.53-30.17,122.09-41.19c82.56-11.02,159.93-49.8,184.7-48.02C2719.33,960.6,2929.35,946.3,2929.35,946.3z"/>
	<polygon opacity="0.06" points="3373.03,1108.71 3325.35,1121.61 3235.35,1107.52 3161,1115.35 3121.87,1069.17 3109.51,1045.64 
		3176.65,1073.09 	"/>
	<polygon opacity="0.27" fill="#FFFFFF" points="4449.6,848.95 4405.35,992.48 4391.26,900.91 4250.391,863.35 	"/>
	<path opacity="0.06" d="M4953.561,954.18L4815.43,987l-128.34-28.17h118.17l77.6-52.21
		C4922.061,933.07,4953.561,954.18,4953.561,954.18z"/>
	<path opacity="0.27" fill="#FFFFFF" d="M5447.83,940.08l-3.96,10.14h-66.521l-118.18,23.48l-70.24-5.79l128.94-29.43
		c0,0,112.7-12.52,129.91,1.56C5447.8,940.05,5447.811,940.07,5447.83,940.08z"/>
	<polygon opacity="0.27" fill="#FFFFFF" points="5867.52,1085.58 5846.13,1109.87 5760.04,1101.26 5673.96,1095.78 
		5559.609,1033.23 5762.641,1080.01 	"/>
	<path opacity="0.27" fill="#FFFFFF" d="M992.04,1108.93l-61.08,19.33l-142.05,16.44l-93.91,27l-78.73-4.181
		c85.6-19.919,137.81-42.12,146.82-45.129c14.08-4.69,185.11-16.96,185.11-16.96S966.4,1106.8,992.04,1108.93z"/>
	<path opacity="0.27" fill="#FFFFFF" d="M1802.6,1015.31l-67.51,59.34l-96.66,28.37l-89.52-7.85c32.75-7.3,59.06-14.09,66.79-16.8
		C1637.15,1070.87,1802.6,1015.31,1802.6,1015.31z"/>
	<polygon opacity="0.06" points="2315.76,1182.43 2201.13,1237.43 2081.39,1237.43 2205.83,1202.22 2238.7,1150 2234.54,1131.26 	
		"/>
	<path opacity="0.27" fill="#FFFFFF" d="M3645.8,1047.64l-294.229,163.97L3233,1229.16l-123.49,12.85h-209.13
		c42.99-7.02,330.8-54.06,337.32-56.229c7.04-2.351,299.61-96.05,299.61-96.05L3645.8,1047.64z"/>
	<path opacity="0.27" fill="#FFFFFF" d="M4761.391,1125.25l-227.69,88.71l-136.181-42.17c82.211,0.03,153.461-0.01,157.41-0.229
		C4564.4,1171.02,4758.359,1125.95,4761.391,1125.25z"/>
	<polygon opacity="0.27" fill="#FFFFFF" points="5545.609,1167 5459.91,1175.22 5330.78,1213.96 5173.439,1202.12 5395.35,1150 	"/>
	<path opacity="0.1" d="M368.81,1394.43l-144.16,13.61l-116.61,39.13l25.83-72.78l-13.38-43.81l63.47,28.939
		C183.96,1359.52,213.51,1381.689,368.81,1394.43z"/>
	<path opacity="0.16" fill="#FFFFFF" d="M1742.95,1308.84l-241.86,140.68c0,0-92.35-17.22-94.7-18
		c-2.35-0.779-105.65,3.91-105.65,3.91l-86.87,10.181l-78.26-20.351c0,0,151.64-22.029,179.12-18.84
		c27.49,3.19,126.1-9.33,141.75-9.33s225.47-71.56,225.47-71.56S1712.11,1314.48,1742.95,1308.84z"/>
	<path opacity="0.1" d="M2451.49,1653.43l-183.45,67.66l102.51-148.14c3.88,3.649,7.25,7.68,10.04,12.2
		C2402.52,1620.74,2451.49,1653.43,2451.49,1653.43z"/>
	<polygon opacity="0.16" fill="#FFFFFF" points="3702.45,1695.22 3634.48,1718.35 3607.48,1736.74 3563.92,1721.39 3607.09,1721.09 
		3627.43,1711.7 	"/>
	<path opacity="0.1" d="M3836.25,1718.47l-39.77-5.989l-13.311-21.91l-34.43-21.92c3.13,0,35.22,11.739,35.22,11.739l45.39,33.65
		C3829.35,1714.04,3832.04,1715.77,3836.25,1718.47z"/>
	<path opacity="0.16" fill="#FFFFFF" d="M4299.12,1717.85l-82.38,43.931l-60.65,7.83l-85.31,34.37
		c2.189-1.051,43.64-30.36,43.64-30.36l51.87-23.51l81.75-10.24L4299.12,1717.85z"/>
	<path opacity="0.1" d="M4583.32,1724.811c0,0-82.49,34.619-83.67,34.229c-1.17-0.39,46.569-53.61,46.569-53.61L4583.32,1724.811z"
		/>
	<path opacity="0.16" fill="#FFFFFF" d="M5440.7,1698.35l-26.57,18.431l-64.96,2.35c0,0-64.57-9.78-67.15-9.78l60.891-1.569
		l95.48-8.61L5440.7,1698.35z"/>
	<polygon opacity="0.1" points="5786.26,1597.83 5774.52,1671 5766.7,1613.48 5719.26,1584.6 5774.13,1578.65 	"/>
	<polygon opacity="0.16" fill="#FFFFFF" points="5925.54,1512.2 5907.17,1538.35 5875.09,1552.43 5789.68,1550.64 	"/>
	<path opacity="0.1" fill="#FFFFFF" d="M842.89,1838.49l-83.32,63.38l-174.92,65.24l-399.38-35.561l139.68-21.81
		c0,0,128.28-16.33,254.81-33.23C705.3,1859.74,840.78,1838.811,842.89,1838.49z"/>
	<path opacity="0.15" d="M1809.51,1884.28l-196.51,8.198l-62.22,51.651l-30.85-142.7c1.49,0.23,2.69,0.45,3.6,0.66
		C1547.35,1807.58,1809.51,1884.28,1809.51,1884.28z"/>
	<polygon opacity="0.1" fill="#FFFFFF" points="2924.29,1727.41 2839.74,1864.3 2606.13,1879.57 2424.17,1921.83 2331.93,1911.37 
		2504.32,1858.24 2652.33,1800.91 	"/>
	<path opacity="0.15" d="M3719,1829.09c0,0-256.303,73.952-252.783,70.432c3.53-3.52,93.914-91.564,93.914-91.564l-66.521-72.787
		L3719,1829.09z"/>
	<polygon opacity="0.1" fill="#FFFFFF" points="5093.91,1734.75 4958.65,1878.39 4803.7,1934.74 4580.859,1878.39 4949.26,1819.7 	
		"/>
	<path opacity="0.26" fill="#FFFFFF" d="M3195.78,335.66c-466.2,107.85-974.41-82.5-1425.01,78.56
		c-65.67,23.47-144.01,52.64-199.71,10.68c-15.1-11.38-26.5-26.98-40.96-39.16c-22.67-19.1-51.57-28.79-79.71-38.07
		c-144.77-47.74-301.18-95.74-446.68-50.28c-68.28,21.33-130.29,62.5-200.88,74.15c-89.38,14.74-186-19.04-269.25,16.68
		c28.73,29.33,8.09,83.17-28.36,102.08c-36.44,18.9-80.13,13.71-120.88,8.69c-40.75-5.02-84.98-8.69-120.14,12.52
		c-8.88,5.36-17.19,12.63-20.79,22.36c-10.99,29.79,25.38,54.66,35.66,84.7c19.17,56.04-53.09,97.08-110.48,111.7
		C112.57,744.54,56.37,758.07,0,770.86V0h2439.49c39.35,11.36,78.53,23.33,117.5,36.01c38.79,12.62,78.35,26.49,109.42,52.92
		c31.07,26.42,52.19,68.43,42.76,108.11c-30.91,12.2-61.82,24.4-92.73,36.6C2815.06,232.77,3024.71,234.75,3195.78,335.66z"/>
	<path opacity="0.26" fill="#FFFFFF" d="M6000,105.91v191.3c-150.25,5.47-300.311,16.3-449.79,32.48
		c-71.229,7.71-144.069,16.55-213.84,0.25c-46.08-10.76-88.95-32.11-134.011-46.57c-79.52-25.52-164.17-29.14-247.609-32.55
		c-135.02-5.52-270.03-11.05-405.04-16.57c-59.39-2.43-128-9.8-160.62-59.5c76.75-24.22,158.75-24.12,239.24-24.24
		C5085.859,149.83,5543.38,134.95,6000,105.91z"/>
	<path opacity="0.26" fill="#FFFFFF" d="M3658.256,385.168c111.629,1.375,223.696,9.759,334.62-2.84
		c65.467-7.436,129.978-22.133,195.542-28.655c135.473-13.476,271.924,8.201,408.046,6.018c43.751-0.702,88.014-3.828,130.87,5.002
		c28.844,5.943,56.279,17.161,84.094,26.844c83.418,29.042,170.859,44.445,257.855,59.733
		c-251.994,20.178-505.713-23.158-757.869-5.115c-124.427,8.903-248.108,32.731-372.809,29.394
		c-45.341-1.213-90.757-6.019-135.955-2.237c-92.565,7.745-185.824,51.076-274.958,24.934
		c-30.721-9.011-58.615-25.246-87.169-39.318c-18.806-9.269-52.688-14.175-56.337-38.982c-4.339-29.491,28.234-26.504,48.23-27.96
		c35.633-2.594,71.317-4.469,107.025-5.626C3579.031,385.078,3618.649,384.681,3658.256,385.168z"/>
</g>
</svg>
