<?xml version="1.0" encoding="utf-8"?>
<!-- Generator: Adobe Illustrator 12.0.0, SVG Export Plug-In . SVG Version: 6.00 Build 51448)  -->
<!DOCTYPE svg PUBLIC "-//W3C//DTD SVG 1.1//EN" "http://www.w3.org/Graphics/SVG/1.1/DTD/svg11.dtd" [
	<!ENTITY ns_svg "http://www.w3.org/2000/svg">
	<!ENTITY ns_xlink "http://www.w3.org/1999/xlink">
]>
<svg  version="1.1" id="Layer_1" xmlns="&ns_svg;" xmlns:xlink="&ns_xlink;" width="6000" height="3000" viewBox="0 0 6000 3000"
	 overflow="visible" enable-background="new 0 0 6000 3000" xml:space="preserve">
<g>
	<linearGradient id="XMLID_6_" gradientUnits="userSpaceOnUse" x1="-46.98" y1="1500" x2="6001.9199" y2="1500">
		<stop  offset="0.0047" style="stop-color:#EDC3A5"/>
		<stop  offset="1" style="stop-color:#E3A284"/>
	</linearGradient>
	<rect fill="url(#XMLID_6_)" width="6000" height="3000"/>
	<defs>
		<filter id="Adobe_OpacityMaskFilter" filterUnits="userSpaceOnUse" x="3616.016" y="315.483" width="1998.909" height="1998.909">
			<feFlood  style="flood-color:white;flood-opacity:1" result="back"/>
			<feBlend  in="SourceGraphic" in2="back" mode="normal"/>
		</filter>
	</defs>
	<mask maskUnits="userSpaceOnUse" x="3616.016" y="315.483" width="1998.909" height="1998.909" id="XMLID_7_">
		<g filter="url(#Adobe_OpacityMaskFilter)">
			<defs>
				
					<filter id="Adobe_OpacityMaskFilter_1_" filterUnits="userSpaceOnUse" x="3616.016" y="315.483" width="1998.909" height="1998.909">
					<feFlood  style="flood-color:white;flood-opacity:1" result="back"/>
					<feBlend  in="SourceGraphic" in2="back" mode="normal"/>
				</filter>
			</defs>
			<mask maskUnits="userSpaceOnUse" x="3616.016" y="315.483" width="1998.909" height="1998.909" id="XMLID_7_">
				<g filter="url(#Adobe_OpacityMaskFilter_1_)">
				</g>
			</mask>
			
				<radialGradient id="XMLID_1_" cx="1384.5298" cy="1314.938" r="999.4546" gradientTransform="matrix(-1 0 0 1 6000 0)" gradientUnits="userSpaceOnUse">
				<stop  offset="0.7933" style="stop-color:#FFFFFF"/>
				<stop  offset="0.8371" style="stop-color:#B7B7B7"/>
				<stop  offset="0.8808" style="stop-color:#767676"/>
				<stop  offset="0.9204" style="stop-color:#434343"/>
				<stop  offset="0.9546" style="stop-color:#1F1F1F"/>
				<stop  offset="0.9823" style="stop-color:#080808"/>
				<stop  offset="1" style="stop-color:#000000"/>
			</radialGradient>
			<circle mask="url(#XMLID_7_)" fill="url(#XMLID_1_)" cx="4615.47" cy="1314.938" r="999.455"/>
		</g>
	</mask>
	
		<radialGradient id="XMLID_2_" cx="1384.5298" cy="1314.938" r="999.4546" gradientTransform="matrix(-1 0 0 1 6000 0)" gradientUnits="userSpaceOnUse">
		<stop  offset="0.7933" style="stop-color:#FEFCFB"/>
		<stop  offset="0.8331" style="stop-color:#F9ECE4"/>
		<stop  offset="0.9047" style="stop-color:#F2D4BF"/>
		<stop  offset="0.9629" style="stop-color:#EEC5A9"/>
		<stop  offset="1" style="stop-color:#ECBFA1"/>
	</radialGradient>
	<circle fill="url(#XMLID_2_)" cx="4615.47" cy="1314.938" r="999.455"/>
	<path opacity="0.15" fill="#FFFFFF" d="M1870.609,643.94c105.176-17.703,207.85-50.249,314.37-57.552
		c113.375-7.774,226.373,13.344,339.745,20.399c132.258,8.23,264.993-2.707,397.103-13.634
		c-141.529-47.3-291.418-72.494-441.732-74.248c-98.219-1.146-196.578,7.625-294.608,2.024
		c-74.08-4.233-148.02-16.664-222.066-11.464c-111.861,7.854-215.327,53.485-321.84,82.788c-26.171,7.2-52.655,13.509-79.52,17.908
		c-15.515,2.541-40.642,0.582-32.574,21.598c7.28,18.964,27.722,23.701,46.452,25.043c30.568,2.192,61.222,3.361,91.887,3.435
		C1735.729,660.402,1803.705,655.201,1870.609,643.94z"/>
	<path fill="#F0B183" d="M0,1034.91V3000h6000V1347.96c0,0-199.61-12.53-331.09-68.87c-23.33-10-48.641-21.97-74.69-35
		c-120.739-60.42-257.54-143.64-288.44-159.09c-37.56-18.78-212.869-37.57-212.869-37.57l-206.36,56.351l-170.569,43.83
		L4567,1091.26l-221.84-43.83l-222.1,118.96l-256.23,6.26l-188.87-75.13l-241.93-131.48l-179.341-31.3L3015.08,972.3l-322.58,68.87
		l-420.3,12.53l-412.42-37.57l-408.66,62.61l-277.51,62.61l-406.28-68.87l-345.03-50.09L0,1034.91z"/>
	<path fill="#D0694F" d="M297.09,1635.96l125.21-413.22c0,0,181.57-81.39,244.18-131.48c62.61-50.09,278.75,11.37,278.75,11.37
		l240.9-268.06l149.88-87.44l0.38-0.22c0,0,58.64-54.73,93.52-86.96c9.26-8.56,16.84-15.53,21.21-19.47
		c20.81-18.78,76.91-106.44,76.91-106.44l329.546-83.36l110.846,53.292c31.887,50.128,76.526,119.849,118.788,184.299h0.01
		c58.62,89.4,112.67,168.65,121.76,171.34c21.03,6.24,263.03,136.71,264.92,137.73l0.01,0.01c0,0,77.09,150.26,86.15,150.26
		s296.11,131.48,296.11,131.48l254.38,201.08l262.69,162.05l217.06,287.58l149.87,438.681L3866.83,3000H0v-399.87L297.09,1635.96z"
		/>
	<path fill="#DD8363" d="M0,859.61V3000h6000V1748.65h-362.391l-300.52-37.561l-147.63-66.04v-0.01l-90.29-40.39h-713.74
		l-262.369-68.87l-187.391-118.95l-195.5-181.57h-190.32l-207.459,68.87l-187.761,156.52l-0.01,0.01
		c-2.431,1.06-312.92,137.8-336.14,156.51c-1,0.811-2.79,1.73-5.31,2.75c-56.16,22.87-472.72,97.43-472.72,97.43l-397.041,31.301
		L1655.7,1629.7l-162.79-137.74l-206.61-125.22l-250.43-56.35l-231.65-75.13l-137.74-144L563.44,984.67l-78.53-81.24l-344.34-43.82
		H0z"/>
	<path fill="#B55134" d="M0,1886.39V3000h6000V1661c0,0-249.699-131.48-268.48-131.48c-18.779,0-175.3-100.169-175.3-100.169
		l-156.46-37.57H5287l-125.221,325.149l-237.909,144.42l-207.89,331.82l-743.761,256.7h-661.78l-412.08,62.61l-275.17-93.91
		c0,0-159.33-125.221-165.85-144c-6.51-18.79-116.89-206.61-116.89-206.61l-184.56-336.06L1993.01,1500l-133.229-51.87
		l-83.62-231.65l-148.29-125.22l-176.75-125.22l-146.03-106.43c0,0-93.92-169.04-112.7-206.61c-18.78-37.57-62.61-75.13-62.61-75.13
		H804.22l-36.89,156.52L653.96,934.74l-100.18,106.43l-219.13,356.87l-62.13,114.94l-63.09,116.72l-100.17,200.34L0,1886.39z"/>
	<path fill="#842F21" d="M0,2600.13V3000h6000v-531.35h-481.35l-294.261-169.041l-175.3-187.829l-244.18-144.41l-189.44-178.44
		H4462.6c0,0-282.899-171.76-289.6-159.229c-6.699,12.52-172.15,118.95-172.15,118.95l-373.67,218.72l-370.49,81.479
		l-334.569,62.931l-217.36,144l-300.09,212.87l-480.64,131.479l-557.16-31.3l-599.54,31.3H0z"/>
	<path fill="#511812" d="M0,2559.43V3000h6000v-825.609l-205.87,56.35L5575,2393.52c0,0-132.471,31.4-143.88,24.84
		c-11.42-6.549-250.55,75.341-250.55,75.341l-400.7-74.431l-434.71-144.699c0,0-298.061-18.79-322.98,6.26
		c-24.92,25.04-312.92,87.65-312.92,87.65l-428.479,85.899l-397.61,75.54l-105.92,20.12l-372.58-81.39l-256.64-206.61l-258.4-12.521
		L1689.19,2093c0,0-171.23,37.57-190.02,56.35c-18.78,18.78-95.56,87.65-132.3,106.431c-0.19,0.1-0.39,0.2-0.59,0.3
		c-37.79,18.62-192.87,31.189-230.24,65.439c-3.68,3.381-12.18,8.051-24.51,13.73C998.08,2387.48,560.04,2525,560.04,2525H372.22
		l-212.87-25.04L0,2559.43z"/>
	<path opacity="0.15" fill="#FFFFFF" d="M5287,1391.78l112.7,93.92c0,0,89.21,5.13,89.21,14.3s73.57,112.48,73.57,112.48
		l65.739,86.09l78.261,70.43l100.17,7.83l78.26,65.74l106.439,29.729l8.65-3.87V1661c0,0-249.699-131.48-268.48-131.48
		c-18.779,0-175.3-100.169-175.3-100.169l-156.46-37.57H5287z"/>
	<path opacity="0.15" fill="#FFFFFF" d="M5092.91,1047.43l86.479,49.311c0,0,38.74,0,44.61,5.87
		c5.87,5.87,119.74,38.74,119.74,38.74l44.609,44.61l100.951,46.95c0,0,57.659,6.55,104.919,11.18
		c-120.739-60.42-257.54-143.64-288.44-159.09C5268.22,1066.22,5092.91,1047.43,5092.91,1047.43z"/>
	<polygon opacity="0.15" fill="#FFFFFF" points="4345.16,1047.43 4361.96,1083.43 4427.7,1099.09 4494.22,1119.43 4530.22,1175 
		4603,1189.87 4672.65,1180.48 4715.98,1147.61 4567,1091.26 	"/>
	<polygon opacity="0.1" points="1280.04,2202.57 1425.61,2113.35 1516.39,1938.04 1591.52,1826.91 1721.43,1689.17 1881.09,1615.61 
		1993.01,1500 1859.78,1448.13 1762.13,1500 1713.61,1589 1589.96,1728.3 1464.74,1806.57 1399,1929.8 1305.09,2085.17 	"/>
	<path opacity="0.1" d="M2068.52,1424.26c0,3.52,24.65,66.91,24.65,66.91s21.13-34.04,36.4-72.78
		c15.26-38.74,44.6-133.82,44.6-133.82s46.96-89.22,48.13-92.74c1.18-3.53,177.271-89.22,177.271-89.22l74.34-105.26l-0.01-0.01
		c-1.89-1.02-243.89-131.49-264.92-137.73l-17.2,83.35c0,0-66.91,89.21-71.61,96.26c-4.69,7.04-3.52,84.521-3.52,84.521l5.87,88.04
		v54l-48.13,61.05C2074.39,1326.83,2068.52,1420.74,2068.52,1424.26z"/>
	<path opacity="0.15" fill="#FFFFFF" d="M4329.09,2105.52L4433.96,1985l108-55.2l73.51-140.87H4462.6c0,0,10.49,23.9,10.49,31.721
		c0,7.83-68.87,68.869-70.439,73.569c-1.561,4.69-57.49,109.561-57.49,109.561L4329.09,2105.52z"/>
	<polygon opacity="0.1" points="2922.12,2111.78 3000,2268.3 3086.3,2340.3 3183.35,2190.04 3465.09,2093 3627.18,1967.37 
		3256.689,2048.85 	"/>
	<polygon opacity="0.15" fill="#FFFFFF" points="3256.689,934.74 3300.74,980.13 3343,1013 3364.91,1077.17 3425.96,1158.57 
		3637.26,1158.57 3820.39,1189.87 3866.83,1172.65 3677.96,1097.52 3436.03,966.04 	"/>
	<path opacity="0.1" d="M4923.87,1861.35l114.26,10.95l32.87,57.5l108,56.771l97.04,50.08l39.13,86.09l57.92-7.83
		c0,0-59.48-79.82-67.311-89.21c-7.819-9.4-34.43-95.9-34.43-95.9l-42.26-93.5l-59.48-59.47l-7.83-59.9L4923.87,1861.35z"/>
	<path opacity="0.15" fill="#FFFFFF" d="M3549.85,1235.26l50.631,62.22l83.35,30.52l51.65,44.61l19.949,49.3l55.18,7.05
		c0,0,137.351,42.26,140.871,48.13c3.52,5.87,82.17,63.391,82.17,63.391l89.41-4.7l-187.391-118.95l-195.5-181.57H3549.85z"/>
	<path opacity="0.1" d="M2555.7,1883.26l95.474-32.868l65.736-25.042l165.92-97.05l84.52-28.17l54.78-93.91l70.44-50.09l62.05-95.47
		c-2.431,1.06-312.92,137.8-336.14,156.51c-1,0.811-2.79,1.73-5.31,2.75l-14.87,52.04l-76.691,89.214l-67.304,64.176L2555.7,1883.26
		z"/>
	<polygon opacity="0.1" points="109.26,1830.04 130.39,1909.09 139.78,2012.39 205.52,2136.83 322.91,2214.3 266.57,2003 
		205.52,1862.13 219.61,1716.93 272.52,1512.98 209.43,1629.7 	"/>
	<polygon opacity="0.15" fill="#FFFFFF" points="4604.57,1604.65 4848.74,1645.35 4972.39,1645.35 5064.74,1709.52 
		5161.779,1716.93 5189.46,1645.05 5189.46,1645.04 5099.17,1604.65 	"/>
	<path opacity="0.15" fill="#FFFFFF" d="M1111,699.96l50.09,90.78v237.91l156.52,125.22l194.09,56.35l-144-162.79l-34.44-112.689
		l-28.17-75.13c0,0-93.92-169.04-112.7-206.61c-18.78-37.57-62.61-75.13-62.61-75.13L1111,699.96z"/>
	<polygon opacity="0.15" fill="#FFFFFF" points="0,859.61 88.91,878.39 167.17,925.35 239.17,956.65 351.87,956.65 400.39,992.65 
		563.44,984.67 484.91,903.43 140.57,859.61 	"/>
	<path opacity="0.1" d="M1336.01,747.13l19.95,46.74l56.34,38.74l109.18,49.3l133.82,44.22L1581.35,842l-105.65-44.61l-45.79-57.52
		v-79.92c-34.88,32.23-93.52,86.96-93.52,86.96L1336.01,747.13z"/>
	<path opacity="0.15" fill="#FFFFFF" d="M1857.576,450.68l110.846,53.292c31.887,50.128,76.526,119.849,118.788,184.299L1987.52,626
		l-119.74-65.74l-55.17-52.83l-126.78,32.87l-157.8-6.26L1857.576,450.68z"/>
	<polygon opacity="0.15" fill="#FFFFFF" points="4345.16,2274.57 4403.43,2392.74 4628.83,2472.57 4830.74,2472.57 5042.04,2514.83 
		5180.57,2493.7 4779.87,2419.27 	"/>
	<polygon opacity="0.15" fill="#FFFFFF" points="2068.52,2340.3 2147.17,2394.7 2209.78,2546.5 2363.17,2587.609 2555.7,2597 
		2644.91,2634.57 2777.25,2550.04 2404.67,2468.65 2148.03,2262.04 	"/>
	<path opacity="0.1" d="M1111.53,2335.25c23.46,20.03,71.47,47.32,71.47,47.32c3.913,22.69,21.913,104.082,21.913,104.082
		l198,41.479l-80.613-131.48c0,0-9.39-62.61-9.39-67.301c0-4.699,40.7-39.13,40.7-39.13l12.67-34.14
		c-37.79,18.62-192.87,31.189-230.24,65.439C1132.36,2324.9,1123.86,2329.57,1111.53,2335.25z"/>
	<polygon opacity="0.15" fill="#FFFFFF" points="159.35,2499.96 230.17,2546.5 254.826,2582.91 339.348,2582.91 426.217,2564.913 
		473.957,2546.13 560.04,2525 372.22,2525 	"/>
	<path opacity="0.15" fill="#FFFFFF" d="M3661.04,413.58c-20.96,26.03,25.59,53.02,58.99,54.32
		c203.689,7.92,407.819,4.6,611.149-9.92c-15.31,86.2-100.699,142.5-184.699,167.2c-83.99,24.7-174.051,28.72-254.391,63.51
		c216.51,12.73,433.721,13.46,650.311,2.18c44.3-2.3,93.869-3.35,126.64,26.53c32.78,29.89,21.22,100.88-23.13,100.13
		c220.47,51.67,464.1-55.58,673.06,31.68c-9.479,27.12-18.95,54.23-28.43,81.35c117.19,10.84,234.37,21.68,351.55,32.52
		c17.62,1.63,36.34,3.68,50.211,14.67c20.229,16.03,23.299,44.9,33.609,68.56c33.609,77.21,136.05,89.51,220.25,90.42
		c17.72,0.19,35.77,0.28,53.84-0.2V0H3238.05c11.48,8.01,22.36,16.86,32.521,26.49C3204.54,57.6,3132.6,76.12,3059.76,80.76
		c34.4,68.71,127.84,76.11,204.66,74.15c72.4-1.85,144.811-3.7,217.21-5.55c18.81-0.48,38.88-0.63,54.76,9.47
		c38.761,24.65,19.25,91.02-22.159,110.89c-41.42,19.87-90.11,9.56-135.49,2.44c-132.12-20.76-269.04-10.39-396.53,30.04
		C3205.1,357.07,3432.311,394.34,3661.04,413.58z"/>
	<path opacity="0.15" fill="#FFFFFF" d="M0,173.09v253.92c232.94,12.6,465.96,23.55,699.16,29.14
		c265.64,6.37,546.48,1.86,774.45-134.65c-202.85-39.37-417.09,19.16-617.19-32.43c-52.21-13.46-102.42-34.23-155.1-45.68
		c-95.91-20.85-195.39-10.04-293.46-6.18c-57.1,2.25-114.7,2.06-170.85-8.61C157.63,213.52,78.65,177.64,0,173.09z"/>
	<path opacity="0.15" fill="#FFFFFF" d="M4653.66,320.17c121.699,39.14,243.4,78.28,365.1,117.42
		c23.85,7.67,48.85,16.05,65.71,34.58c10.08,11.07,16.521,25.04,26.54,36.17c22.4,24.87,58.26,31.44,91.43,35.93
		c105.09,14.26,211.041,22.15,317.09,23.63c61.391,0.85,125.061,0,181.07,25.16c40.74,18.31,74.51,49.21,113.721,70.59
		c56.41,30.76,120.859,40.21,185.68,38.23V342.83c-151.439,14.2-302.881,28.41-454.311,42.61
		c-80.55,7.56-163.869,14.82-240.59-10.86c-47.81-16-90.89-44.21-138.939-59.47c-63.66-20.21-132.09-16.62-198.771-12.82
		C4862.82,308.25,4758.24,314.21,4653.66,320.17z"/>
	<g>
		<path fill="#511812" d="M3561.76,893.365c78.728-84.389,181.181-13.75,181.181-13.75
			c-130.493-34.509-181.181,56.546-181.181,56.546s-50.688-91.055-181.181-56.546
			C3380.579,879.615,3483.032,808.976,3561.76,893.365z"/>
		<path fill="#511812" d="M3371.344,765.807c42.94-63.752,117.727-28.023,117.727-28.023
			c-89.443-9.027-113.243,56.171-113.243,56.171s-42.878-54.579-125.091-18.211C3250.736,775.743,3310.723,718.549,3371.344,765.807
			z"/>
		<path fill="#511812" d="M3195.715,694.117c18.939-28.119,51.926-12.36,51.926-12.36c-39.451-3.982-49.948,24.775-49.948,24.775
			s-18.911-24.073-55.173-8.033C3142.52,698.5,3168.977,673.273,3195.715,694.117z"/>
		<path fill="#511812" d="M3149.245,613.384c19.236-16.575,39.956,1.325,39.956,1.325c-27.716-10.667-40.979,8.036-40.979,8.036
			s-8.909-21.127-38.275-16.699C3109.946,606.045,3134.044,593.044,3149.245,613.384z"/>
		<path fill="#511812" d="M2620.199,763.688c42.705-33.473,85.157,6.788,85.157,6.788c-58.104-25.518-88.268,13.09-88.268,13.09
			s-16.923-45.98-80.045-39.439C2537.043,744.127,2589.768,718.765,2620.199,763.688z"/>
		<path fill="#511812" d="M2629.964,705.31c22.223-17.419,44.315,3.533,44.315,3.533c-30.237-13.28-45.935,6.812-45.935,6.812
			s-8.807-23.928-41.656-20.524C2586.688,695.13,2614.127,681.932,2629.964,705.31z"/>
		<path fill="#511812" d="M2669.559,635.737c12.048-9.443,24.025,1.915,24.025,1.915c-16.393-7.199-24.903,3.693-24.903,3.693
			s-4.774-12.972-22.583-11.127C2646.098,630.219,2660.973,623.063,2669.559,635.737z"/>
	</g>
	<path fill="#511812" d="M531.747,859.272c39.087-41.898,89.955-6.826,89.955-6.826c-64.789-17.134-89.955,28.074-89.955,28.074
		s-25.166-45.208-89.955-28.074C441.792,852.446,492.659,817.374,531.747,859.272z"/>
	<path fill="#511812" d="M535.4,767.693c26.521-24.018,56.331,0.476,56.331,0.476c-39.414-14.063-57.447,12.746-57.447,12.746
		s-13.285-29.451-54.498-22.192C479.786,758.723,513.279,739.57,535.4,767.693z"/>
	<path fill="#511812" d="M527.794,701.829c8.646-16.031,27.111-9.342,27.111-9.342c-21.302-0.052-25.4,15.876-25.4,15.876
		s-11.378-11.875-29.921-1.39C499.584,706.973,512.401,692.092,527.794,701.829z"/>
	<path fill="#511812" d="M4373.443,795.957c28.973-18.9,53.71,9.016,53.71,9.016c-35.493-19.417-56.784,3.437-56.784,3.437
		s-8.207-30.138-48.658-29.471C4321.711,778.939,4356.599,765.745,4373.443,795.957z"/>
	<linearGradient id="XMLID_3_" gradientUnits="userSpaceOnUse" x1="0" y1="2122.0449" x2="6000" y2="2122.0449">
		<stop  offset="0" style="stop-color:#450C07"/>
		<stop  offset="0.4325" style="stop-color:#2F0805"/>
		<stop  offset="1" style="stop-color:#160403"/>
	</linearGradient>
	<path fill="url(#XMLID_3_)" d="M0,1767.559v733.076v232.654V3000h6000v-266.711v-253.783v-711.947
		c-8.58-0.896-17.15-1.801-25.73-2.696c6.391-13.069,12.931-27.054,10.78-41.271c-2.16-14.227-16.931-27.753-31.749-23.872
		c21.029-12.706,20.889-46.468-0.251-59.015c21.899-9.161,18.511-41.01,2.06-57.307c-16.449-16.298-40.49-24.171-58.039-39.442
		c-35.891-31.215-35.83-82.989-39.07-128.673c-4.16-58.566-18.02-116.536-40.95-171.193
		c-44.44,133.766-88.88,267.532-133.33,401.299c-3.26,9.832-6.09,21.773,1.33,29.404c4.24,4.356,11.19,6.362,14.03,11.623
		c3.31,6.148-0.65,13.462-5.02,19.004c-37.69,47.707-113.73,67.811-132.031,124.559c26.48-9.563,48.36,28.005,35.92,51.812
		c-12.449,23.817-40.969,35.394-65.159,49.266c-22.66,12.995-44.271,31.364-49.41,55.712c-5.14,24.349,14.14,53.604,40.69,52.167
		c-27.881,28.154-55.75,56.309-83.631,84.463c-5.06,5.112-10.449,10.971-10.289,17.931c0.199,9.608,10.51,15.914,19.59,20.458
		c28.67,14.347,57.34,28.695,86.01,43.033c-9.71,20.664-32.811,32.409-54.17,42.987c-21.36,10.579-44.19,23.238-52.4,44.462
		c-8.199,21.231,9.86,50.842,33.43,45.795c-20.239,14.264-41.01,29.06-53.869,49.462c-12.87,20.401-16,48.033-0.75,66.943
		c-10.58,6.455-18.711,15.924-23.811,26.681c-23.4-9.198-46.27-21.774-68.22-37.549c-8.37-6.017-17.851-15.552-17.63-30.067
		c0.26-16.67,12.689-24.805,19.59-37.427c12.82-23.462,0.29-67.177-19.32-67.886c16.32-16.354,32.32-33.528,47.961-51.477
		c-23.781-12.268-47.561-24.525-71.341-36.793c12.31-9.143,23.79-21.046,34-35.235c-5.2-3.712-10.409-7.426-15.61-11.129
		c8.191-15.318,16.381-30.636,24.57-45.954c-23.31-8.955-46.619-17.911-69.92-26.867c8.2-16.53,15.45-34.246,21.63-52.838
		c-19.87-3.19-39.739-6.372-59.61-9.553c3.971-12.343,7.94-24.675,11.91-37.018c-15.59,0.709-31.199-9.469-27.08-33.35
		c3.971-22.978-0.72-41.878-8.299-66.897c-7.811,67.121-0.11,48.893-13.601,84.836c-16.58,44.163-35.33,86.273-56.04,125.837
		c6.37,5.317,12.73,10.635,19.1,15.952c-20.92,12.239-39.77,33.202-54.119,60.181c-31.811,11.008-62.57,29.609-90.91,54.975
		c15.64,11.4,31.27,22.8,46.899,34.209c-18.8,12.771-37.6,25.552-56.409,38.322c13.199,6.876,26.39,13.761,39.58,20.636
		c-27.271,15.271-53.851,33.556-79.5,54.695c24.639,18.35,49.279,36.699,73.92,55.049c-20.19,12.977-39.91,27.744-59.051,44.21
		c10.74,10.084,21.49,20.169,32.23,30.253c-11.19,4.608-13.9,27.334-14.461,45.581c-0.399,12.977-0.789,25.952-1.189,38.929
		c-17.26,9.944-34.51,19.88-51.77,29.815c-0.12-3.807-0.23-7.612-0.351-11.419c-0.3-9.897-1.78-22.221-7.839-24.722
		c5.819-5.466,11.648-10.942,17.479-16.409c-10.379-8.928-21.079-16.94-32.029-23.975c13.359-9.954,26.73-19.908,40.09-29.862
		c-13.91-11.465-28.33-21.381-43.109-29.665c7.149-3.731,14.299-7.463,21.459-11.194c-10.199-6.922-20.399-13.854-30.6-20.785
		c8.48-6.185,16.96-12.37,25.439-18.555c-15.369-13.751-32.049-23.845-49.299-29.815c-7.791-14.628-18.011-25.999-29.36-32.632
		c3.45-2.893,6.909-5.774,10.36-8.657c-11.23-21.456-21.4-44.303-30.391-68.25c-7.32-19.497,6.52-35.216-7.38-46.019
		c-4.11,13.573-6.659,23.825-4.5,36.289c2.24,12.948-6.229,18.471-14.69,18.088c2.16,6.689,4.311,13.387,6.461,20.076
		c-10.771,1.726-21.551,3.451-32.33,5.178c3.359,10.094,7.289,19.693,11.729,28.658c-12.64,4.86-25.28,9.721-37.92,14.58
		c4.44,8.303,8.88,16.615,13.33,24.918c-2.83,2.015-5.649,4.021-8.47,6.035c5.539,7.697,11.76,14.152,18.439,19.115
		c-12.9,6.651-25.79,13.303-38.689,19.954c8.48,9.739,17.16,19.05,26.01,27.922c-10.641,0.382-17.43,24.087-10.48,36.82
		c3.74,6.848,10.48,11.251,10.62,20.3c0.13,7.864-5.021,13.042-9.55,16.297c-15.84,11.391-32.561,19.703-49.67,24.713
		c5.391,8.125,11.8,14.543,18.74,18.77c-8.906,5.135-17.817,10.266-26.727,15.398c-7.769-3.365-15.629-6.506-23.581-9.388
		c8.972-3.028,17.944-6.056,26.915-9.084c-12.789-5.623-25.577-11.245-38.366-16.868c10.633-5.02,21.266-10.039,31.897-15.059
		c-19.272-11.165-40.191-19.352-61.83-24.195c-9.763-11.876-22.582-21.101-36.81-26.488c4.329-2.342,8.659-4.683,12.987-7.023
		c-14.083-17.414-26.838-35.951-38.112-55.387c-9.177-15.821,8.185-28.578-9.25-37.344c-5.157,11.014-8.349,19.33-5.647,29.445
		c2.807,10.511-7.815,14.994-18.416,14.68c2.701,5.431,5.402,10.861,8.104,16.292c-13.516,1.402-27.03,2.804-40.545,4.206
		c4.203,8.186,9.135,15.98,14.711,23.258c-15.854,3.942-31.706,7.885-47.559,11.828c5.57,6.741,11.142,13.482,16.713,20.224
		c-3.541,1.633-7.081,3.266-10.621,4.898c6.945,6.247,14.758,11.486,23.127,15.513c-12.084,4.033-24.169,8.066-36.254,12.1
		c-11.047-9.186-22.852-16.034-35.014-20.295c-6.237-11.877-14.428-21.102-23.52-26.489c2.767-2.341,5.533-4.682,8.299-7.022
		c-8.998-17.414-17.148-35.951-24.352-55.388c-5.863-15.821,5.229-28.577-5.911-37.344c-3.295,11.014-5.335,19.331-3.608,29.445
		c1.793,10.511-4.994,14.995-11.767,14.681c1.726,5.431,3.452,10.861,5.177,16.292c-8.635,1.401-17.27,2.804-25.905,4.206
		c2.686,8.186,5.836,15.979,9.399,23.258c-10.129,3.942-20.259,7.885-30.389,11.827c3.561,6.741,7.119,13.483,10.68,20.225
		c-2.262,1.632-4.524,3.266-6.787,4.898c4.439,6.247,9.43,11.485,14.778,15.512c-10.334,5.397-20.668,10.796-31.002,16.193
		c6.796,7.901,13.747,15.459,20.841,22.658c-8.523,0.312-13.969,19.554-8.396,29.882c2.999,5.557,8.4,9.134,8.513,16.474
		c0.099,6.388-4.024,10.587-7.659,13.232c-6.452,4.696-13.088,8.747-19.854,12.132c-2.059-1.688-4.133-3.328-6.24-4.87
		c7.371-4.949,14.743-9.898,22.114-14.848c-6.97-6.51-14.259-12.21-21.794-17.043c3.895-1.796,7.789-3.593,11.684-5.389
		c-5.158-3.983-10.314-7.968-15.473-11.952c4.672-3.071,9.346-6.142,14.018-9.213c-7.666-7.775-16.143-13.627-25.055-17.294
		c-3.636-8.035-8.664-14.392-14.436-18.253c1.914-1.446,3.828-2.893,5.742-4.338c-5.234-11.777-9.865-24.264-13.838-37.311
		c-3.234-10.619,4.576-18.637-2.412-24.793c-2.605,7.139-4.278,12.544-3.543,19.264c0.764,6.983-3.883,9.701-8.33,9.261
		c0.922,3.636,1.842,7.271,2.764,10.906c-5.742,0.625-11.483,1.25-17.225,1.875c1.443,5.482,3.209,10.724,5.267,15.639
		c-6.826,2.246-13.651,4.493-20.478,6.739c2.076,4.562,4.152,9.123,6.229,13.686c-1.554,0.996-3.107,1.994-4.662,2.99
		c2.675,4.267,5.754,7.889,9.115,10.725c-7.018,3.197-14.037,6.395-21.055,9.592c4.161,5.438,8.438,10.654,12.824,15.64
		c-5.625-0.09-9.974,12.393-6.714,19.386c1.754,3.762,5.169,6.304,4.952,11.141c-0.188,4.209-3.07,6.832-5.568,8.448
		c-6.125,3.964-12.434,7.09-18.828,9.374c-0.164-5.426-0.328-10.852-0.491-16.277c-0.273-9.044-1.603-20.308-7.077-22.594
		c5.258-4.998,10.516-9.996,15.773-14.994c-9.367-8.162-19.021-15.482-28.899-21.914c12.06-9.097,24.118-18.193,36.178-27.289
		c-12.552-10.478-25.563-19.544-38.907-27.111c6.455-3.41,12.912-6.819,19.367-10.229c-9.203-6.332-18.404-12.665-27.607-18.997
		c7.651-5.652,15.303-11.305,22.953-16.957c-13.868-12.574-28.921-21.793-44.49-27.247c-7.025-13.375-16.249-23.764-26.486-29.831
		c3.114-2.637,6.229-5.272,9.345-7.908c-10.134-19.611-19.313-40.486-27.425-62.375c-6.603-17.816,5.889-32.183-6.656-42.055
		c-3.71,12.403-6.007,21.77-4.063,33.16c2.02,11.837-5.623,16.886-13.251,16.532c1.943,6.116,3.887,12.231,5.831,18.348
		c-9.726,1.578-19.45,3.157-29.175,4.735c3.025,9.219,6.573,17.997,10.586,26.192c-11.407,4.439-22.814,8.88-34.222,13.319
		c4.009,7.592,8.018,15.184,12.026,22.775c-2.548,1.839-5.095,3.678-7.643,5.517c4.998,7.035,10.619,12.935,16.642,17.47
		c-11.638,6.078-23.274,12.156-34.912,18.235c7.652,8.897,15.481,17.409,23.47,25.517c-9.6,0.351-15.731,22.02-9.455,33.65
		c3.377,6.258,9.459,10.287,9.586,18.553c0.11,7.193-4.532,11.923-8.625,14.901c-5.549,4.039-11.219,7.65-16.981,10.832
		c-6.5-5.946-13.519-10.569-20.86-13.677c-3.544-8.071-8.499-14.477-14.228-18.395c1.931-1.428,3.861-2.854,5.792-4.281
		c-5.101-11.828-9.59-24.36-13.414-37.445c-3.113-10.65,4.787-18.59-2.129-24.815c-2.688,7.112-4.422,12.501-3.763,19.229
		c0.685,6.989-3.993,9.661-8.435,9.177c0.879,3.645,1.76,7.289,2.639,10.934c-5.748,0.567-11.496,1.137-17.244,1.704
		c1.381,5.497,3.087,10.755,5.089,15.69c-6.852,2.178-13.702,4.357-20.554,6.536c2.024,4.582,4.049,9.164,6.074,13.746
		c-1.566,0.981-3.131,1.963-4.697,2.944c2.627,4.293,5.664,7.945,8.993,10.814c-7.054,3.127-14.108,6.256-21.163,9.383
		c4.1,5.479,8.318,10.737,12.646,15.766c-5.624-0.146-10.113,12.293-6.934,19.317c1.711,3.78,5.097,6.355,4.825,11.189
		c-0.236,4.208-3.147,6.802-5.663,8.394c-2.267,1.434-4.558,2.752-6.865,3.962c-3.156-2.98-6.408-5.718-9.754-8.167
		c5.036-3.381,10.072-6.763,15.107-10.144c-4.762-4.448-9.74-8.342-14.889-11.645c2.66-1.227,5.321-2.454,7.982-3.681
		c-3.524-2.723-7.048-5.444-10.571-8.166c3.192-2.098,6.385-4.196,9.576-6.294c-5.237-5.313-11.028-9.311-17.116-11.815
		c-2.484-5.489-5.92-9.832-9.863-12.471c1.309-0.988,2.616-1.976,3.924-2.964c-3.576-8.046-6.74-16.577-9.455-25.489
		c-2.209-7.256,3.127-12.732-1.646-16.939c-1.781,4.877-2.924,8.57-2.422,13.161c0.522,4.771-2.652,6.628-5.69,6.327
		c0.63,2.483,1.259,4.967,1.888,7.451c-3.923,0.427-7.846,0.854-11.768,1.28c0.986,3.746,2.193,7.327,3.599,10.685
		c-4.664,1.535-9.327,3.069-13.991,4.604c1.419,3.116,2.838,6.233,4.256,9.35c-1.062,0.681-2.123,1.362-3.185,2.044
		c1.827,2.914,3.931,5.389,6.228,7.326c-4.795,2.185-9.59,4.369-14.385,6.554c2.843,3.715,5.765,7.278,8.762,10.685
		c-3.844-0.062-6.814,8.467-4.587,13.244c1.198,2.57,3.531,4.307,3.383,7.611c-0.129,2.875-2.098,4.668-3.804,5.771
		c-5.959,3.856-12.17,6.578-18.447,8.084c1.765,3.065,3.935,5.53,6.346,7.206c-1.167,0.599-2.334,1.197-3.502,1.796
		c-13.426-3.976-26.852-7.95-40.277-11.926c7.564-1.872,15.129-3.744,22.692-5.617c-7.563-2.818-15.125-5.638-22.688-8.456
		c-0.169-3.556-0.336-7.112-0.504-10.667c-0.236-5-1.387-11.226-6.123-12.49c4.549-2.762,9.098-5.525,13.646-8.288
		c-8.104-4.512-16.455-8.558-25.001-12.113c10.432-5.028,20.865-10.056,31.298-15.084c-10.859-5.792-22.116-10.804-33.659-14.986
		c5.584-1.885,11.169-3.77,16.754-5.655c-7.961-3.5-15.922-7-23.883-10.5c6.619-3.125,13.238-6.249,19.856-9.374
		c-11.997-6.95-25.02-12.046-38.489-15.062c-6.077-7.393-14.057-13.135-22.914-16.488c2.695-1.458,5.391-2.915,8.085-4.373
		c-8.767-10.84-16.707-22.379-23.726-34.479c-5.712-9.848,5.095-17.789-5.758-23.246c-3.21,6.856-5.197,12.033-3.516,18.33
		c1.747,6.543-4.865,9.334-11.464,9.139c1.682,3.38,3.362,6.761,5.044,10.142c-8.412,0.872-16.826,1.745-25.238,2.618
		c2.616,5.095,5.686,9.947,9.157,14.478c-9.868,2.454-19.737,4.909-29.605,7.362c3.468,4.197,6.937,8.394,10.403,12.59
		c-2.203,1.017-4.406,2.033-6.611,3.05c4.324,3.889,9.188,7.149,14.397,9.656c-10.067,3.36-20.136,6.72-30.203,10.08
		c6.62,4.919,13.394,9.623,20.304,14.104c-8.305,0.193-13.609,12.172-8.18,18.602c2.921,3.459,8.183,5.686,8.293,10.255
		c0.096,3.976-3.921,6.591-7.461,8.237c-4.645,2.16-9.387,4.102-14.205,5.818c2.977-2.246,5.953-4.49,8.93-6.736
		c-6.938-5.791-14.131-10.803-21.507-14.986c3.568-1.885,7.137-3.77,10.705-5.654c-5.087-3.5-10.173-7-15.26-10.501
		c4.229-3.124,8.458-6.249,12.688-9.373c-7.666-6.95-15.986-12.046-24.593-15.062c-3.883-7.393-8.982-13.136-14.641-16.489
		c1.722-1.457,3.443-2.914,5.165-4.372c-5.602-10.84-10.675-22.379-15.159-34.479c-3.65-9.849,3.256-17.789-3.68-23.246
		c-2.051,6.855-3.32,12.033-2.246,18.33c1.117,6.543-3.108,9.333-7.324,9.138c1.074,3.381,2.148,6.762,3.223,10.142
		c-5.375,0.873-10.751,1.746-16.127,2.618c1.672,5.096,3.634,9.948,5.852,14.479c-6.305,2.454-12.611,4.908-18.916,7.362
		c2.215,4.196,4.432,8.393,6.647,12.59c-1.408,1.017-2.816,2.033-4.225,3.049c2.763,3.889,5.869,7.15,9.199,9.656
		c-6.433,3.36-12.866,6.721-19.299,10.08c4.23,4.919,8.558,9.624,12.974,14.105c-5.307,0.193-8.696,12.172-5.227,18.602
		c1.866,3.459,5.229,5.686,5.299,10.255c0.061,3.976-2.506,6.59-4.768,8.236c-4.634,3.373-9.422,6.197-14.309,8.479
		c-2.615-2.107-5.283-4.061-8.011-5.81c2.425-1.118,4.849-2.236,7.273-3.354c-3.211-2.479-6.422-4.96-9.632-7.44
		c2.908-1.911,5.817-3.823,8.726-5.734c-4.772-4.841-10.049-8.483-15.596-10.766c-2.264-5.002-5.394-8.959-8.987-11.362
		c1.192-0.9,2.384-1.801,3.575-2.701c-3.259-7.33-6.142-15.104-8.614-23.225c-2.013-6.611,2.849-11.602-1.501-15.434
		c-1.622,4.443-2.664,7.809-2.206,11.991c0.476,4.347-2.417,6.039-5.186,5.765c0.574,2.263,1.146,4.525,1.72,6.789
		c-3.573,0.389-7.147,0.778-10.722,1.168c0.898,3.412,1.998,6.675,3.278,9.734c-4.249,1.398-8.498,2.797-12.747,4.195
		c1.293,2.84,2.585,5.68,3.878,8.519c-0.968,0.621-1.935,1.241-2.902,1.862c1.665,2.656,3.581,4.91,5.674,6.676
		c-4.369,1.99-8.737,3.98-13.106,5.971c2.59,3.385,5.253,6.633,7.982,9.735c-3.501-0.056-6.208,7.715-4.179,12.067
		c1.092,2.343,3.218,3.925,3.083,6.936c-0.117,2.62-1.911,4.253-3.467,5.26c-5.43,3.514-11.088,5.993-16.808,7.365
		c1.607,2.793,3.585,5.039,5.782,6.565c-1.14,0.585-2.279,1.169-3.418,1.753c-4.76-4.094-9.628-7.842-14.598-11.184
		c7.271-5.662,14.542-11.324,21.813-16.986c-7.568-6.522-15.413-12.166-23.459-16.877c3.893-2.123,7.785-4.245,11.678-6.368
		c-5.549-3.941-11.098-7.884-16.646-11.825c4.613-3.519,9.226-7.037,13.839-10.557c-8.361-7.826-17.438-13.565-26.825-16.961
		c-4.235-8.325-9.798-14.793-15.97-18.569c1.878-1.642,3.756-3.282,5.635-4.923c-6.111-12.208-11.645-25.203-16.536-38.828
		c-3.981-11.091,3.551-20.034-4.013-26.18c-2.238,7.722-3.623,13.552-2.451,20.643c1.219,7.369-3.391,10.512-7.989,10.291
		c1.172,3.807,2.344,7.614,3.516,11.422c-5.864,0.982-11.728,1.965-17.591,2.947c1.824,5.738,3.963,11.203,6.383,16.305
		c-6.878,2.764-13.756,5.527-20.634,8.292c2.417,4.726,4.834,9.451,7.251,14.177c-1.536,1.146-3.072,2.29-4.607,3.435
		c3.013,4.379,6.402,8.052,10.033,10.874c-7.017,3.784-14.033,7.568-21.051,11.353c4.615,5.538,9.335,10.837,14.152,15.884
		c-5.789,0.219-9.485,13.707-5.701,20.947c2.035,3.896,5.703,6.403,5.779,11.549c0.066,4.479-2.732,7.422-5.2,9.276
		c-1.146,0.861-2.302,1.687-3.464,2.485c-1.062-0.838-2.123-1.675-3.184-2.513c2.93-1.883,5.86-3.765,8.79-5.647
		c-4.717-4.888-9.952-8.582-15.473-10.92c-2.207-5.023-5.291-9.012-8.857-11.45c1.202-0.889,2.403-1.776,3.605-2.665
		c-3.176-7.363-5.97-15.164-8.351-23.31c-1.938-6.63,2.98-11.572-1.325-15.448c-1.673,4.428-2.752,7.783-2.342,11.97
		c0.427,4.352-2.485,6.015-5.251,5.713c0.548,2.269,1.096,4.537,1.643,6.806c-3.578,0.354-7.156,0.707-10.734,1.062
		c0.859,3.421,1.922,6.694,3.168,9.767c-4.265,1.356-8.529,2.713-12.795,4.069c1.261,2.853,2.521,5.704,3.781,8.557
		c-0.975,0.611-1.949,1.222-2.924,1.833c1.635,2.673,3.525,4.946,5.599,6.731c-4.392,1.947-8.782,3.895-13.174,5.842
		c2.552,3.41,5.177,6.684,7.872,9.813c-3.501-0.09-6.296,7.652-4.316,12.025c1.065,2.353,3.173,3.956,3.004,6.966
		c-0.147,2.618-1.959,4.233-3.525,5.224c-5.47,3.461-11.156,5.884-16.891,7.199c1.575,2.81,3.527,5.074,5.707,6.623
		c-4.29,2.145-8.58,4.29-12.869,6.435c2.247,3.951,4.494,7.902,6.742,11.854c0.666,1.172,1.379,2.639,1.094,4.248
		c-0.262,1.476-1.239,2.34-2.114,3.018c-2.65,2.054-5.301,4.107-7.952,6.162c-0.206-0.975-0.565-1.762-1.188-2.063
		c1.383-1.174,2.765-2.349,4.146-3.522c-2.207-2.151-4.498-4.098-6.857-5.826c3.135-2.104,6.27-4.21,9.404-6.314
		c-2.964-2.769-6.064-5.192-9.269-7.248c1.656-0.764,3.313-1.528,4.969-2.292c-2.193-1.694-4.387-3.389-6.58-5.083
		c1.987-1.306,3.974-2.612,5.962-3.918c-3.261-3.308-6.865-5.796-10.656-7.354c-1.546-3.418-3.684-6.121-6.139-7.764
		c0.813-0.615,1.628-1.229,2.441-1.845c-2.226-5.009-4.195-10.319-5.885-15.867c-1.375-4.517,1.946-7.927-1.025-10.544
		c-1.108,3.035-1.82,5.334-1.508,8.192c0.326,2.97-1.65,4.126-3.542,3.938c0.392,1.546,0.783,3.092,1.175,4.638
		c-2.441,0.267-4.883,0.532-7.325,0.798c0.614,2.332,1.365,4.561,2.24,6.65c-2.903,0.956-5.807,1.911-8.709,2.866
		c0.883,1.94,1.767,3.88,2.649,5.82c-0.661,0.424-1.322,0.849-1.983,1.272c1.138,1.814,2.446,3.354,3.877,4.561
		c-2.985,1.359-5.97,2.72-8.955,4.08c1.771,2.313,3.59,4.53,5.454,6.65c-2.393-0.038-4.241,5.271-2.855,8.244
		c0.746,1.601,2.199,2.682,2.106,4.738c-0.08,1.791-1.306,2.906-2.367,3.594c-3.71,2.4-7.576,4.094-11.483,5.031
		c1.098,1.909,2.449,3.443,3.949,4.486c-2.913,1.494-5.827,2.988-8.741,4.482c1,1.715,2,3.429,3,5.143
		c-1.178-1.044-2.356-2.088-3.534-3.133c-0.652-0.578-1.375-1.309-1.498-2.485c-0.134-1.284,0.511-2.407,1.104-3.3
		c1.997-3.008,3.994-6.016,5.991-9.023c-3.265-1.904-6.528-3.808-9.793-5.712c1.808-1.114,3.476-2.806,4.878-4.946
		c-4.451-1.32-8.802-3.513-12.924-6.512c-1.18-0.859-2.519-2.223-2.486-4.297c0.037-2.384,1.791-3.545,2.764-5.35
		c1.811-3.354,0.042-9.603-2.726-9.704c2.303-2.337,4.561-4.792,6.767-7.357c-3.355-1.753-6.711-3.506-10.066-5.259
		c1.736-1.307,3.357-3.008,4.799-5.037c-0.734-0.529-1.47-1.061-2.204-1.59c1.156-2.189,2.312-4.379,3.468-6.568
		c-3.289-1.28-6.578-2.56-9.868-3.84c1.157-2.363,2.181-4.895,3.053-7.553c-2.804-0.455-5.608-0.91-8.413-1.365
		c0.561-1.765,1.121-3.527,1.682-5.291c-2.199,0.102-4.403-1.354-3.82-4.768c0.561-3.284-0.103-5.985-1.172-9.562
		c-3.618,2.847-0.016,6.989-1.92,12.127c-2.339,6.312-4.985,12.331-7.908,17.985c0.898,0.761,1.797,1.521,2.695,2.281
		c-2.952,1.749-5.611,4.744-7.638,8.602c-4.489,1.572-8.83,4.23-12.828,7.856c2.206,1.63,4.411,3.26,6.618,4.89
		c-2.654,1.826-5.308,3.652-7.961,5.478c1.861,0.983,3.723,1.967,5.584,2.95c-3.848,2.182-7.6,4.797-11.219,7.817
		c3.478,2.623,6.955,5.246,10.433,7.868c-2.849,1.855-5.633,3.967-8.333,6.32c1.516,1.44,3.031,2.882,4.548,4.323
		c-1.578,0.659-1.962,3.907-2.041,6.515c-0.056,1.855-0.111,3.71-0.167,5.564c-2.521,1.471-5.042,2.941-7.563,4.412
		c2.521,0.977,5.042,1.953,7.563,2.93c-5.128,2.376-10.256,4.752-15.384,7.129c0.179-0.27,0.357-0.537,0.535-0.807
		c-2.898-1.69-5.797-3.381-8.696-5.071c1.605-0.99,3.087-2.492,4.332-4.392c-3.953-1.173-7.816-3.119-11.476-5.783
		c-1.049-0.763-2.237-1.974-2.209-3.816c0.033-2.116,1.59-3.147,2.455-4.75c1.606-2.978,0.037-8.526-2.422-8.616
		c2.046-2.076,4.051-4.255,6.01-6.534c-2.979-1.556-5.959-3.112-8.939-4.669c1.543-1.161,2.981-2.672,4.262-4.473
		c-0.652-0.472-1.305-0.942-1.957-1.412c1.026-1.944,2.053-3.888,3.079-5.832c-2.921-1.137-5.842-2.274-8.763-3.411
		c1.027-2.098,1.937-4.346,2.711-6.706c-2.49-0.404-4.98-0.809-7.471-1.213c0.498-1.565,0.996-3.132,1.493-4.698
		c-1.953,0.091-3.909-1.201-3.393-4.232c0.497-2.917-0.091-5.315-1.041-8.491c-3.212,2.528-0.014,6.206-1.704,10.769
		c-2.077,5.604-4.427,10.949-7.021,15.971c0.797,0.676,1.595,1.351,2.393,2.025c-2.622,1.554-4.983,4.214-6.782,7.639
		c-3.986,1.396-7.841,3.757-11.392,6.977c1.959,1.447,3.918,2.895,5.877,4.342c-2.356,1.621-4.713,3.242-7.068,4.864
		c1.652,0.873,3.306,1.746,4.959,2.619c-3.417,1.938-6.749,4.259-9.963,6.941c3.088,2.329,6.176,4.659,9.264,6.987
		c-0.118,0.077-0.234,0.162-0.353,0.239c-3.618-2.035-7.236-4.071-10.854-6.106c2.494-1.484,4.795-3.734,6.729-6.582
		c-6.14-1.757-12.141-4.675-17.824-8.666c-1.628-1.143-3.474-2.958-3.431-5.718c0.051-3.172,2.47-4.717,3.813-7.118
		c2.496-4.463,0.058-12.777-3.76-12.912c3.177-3.111,6.29-6.377,9.334-9.791c-4.628-2.332-9.257-4.665-13.885-6.997
		c2.396-1.739,4.63-4.003,6.618-6.703c-1.014-0.705-2.026-1.411-3.039-2.116c1.594-2.913,3.188-5.826,4.783-8.739
		c-4.537-1.704-9.073-3.407-13.61-5.11c1.596-3.145,3.007-6.514,4.21-10.05c-3.867-0.606-7.735-1.212-11.603-1.817
		c0.772-2.347,1.546-4.693,2.318-7.04c-3.033,0.136-6.073-1.802-5.27-6.344c0.772-4.37-0.141-7.964-1.616-12.724
		c-4.989,3.788-0.021,9.301-2.647,16.137c-3.226,8.398-6.876,16.408-10.906,23.934c1.239,1.012,2.478,2.022,3.716,3.034
		c-4.071,2.328-7.74,6.314-10.533,11.446c-6.192,2.093-12.179,5.63-17.694,10.455c3.043,2.168,6.085,4.338,9.128,6.506
		c-3.66,2.43-7.319,4.859-10.979,7.289c2.567,1.309,5.134,2.617,7.702,3.926c-5.307,2.903-10.481,6.382-15.473,10.402
		c4.796,3.49,9.592,6.98,14.388,10.471c-3.929,2.468-7.768,5.276-11.493,8.408c2.091,1.918,4.182,3.836,6.273,5.754
		c-2.177,0.877-2.706,5.198-2.814,8.669c-0.078,2.468-0.155,4.937-0.232,7.404c-3.477,1.957-6.953,3.913-10.43,5.87
		c3.477,1.3,6.955,2.6,10.432,3.898c-8.334,3.727-16.667,7.452-25.001,11.178c-0.209-1.636-1.254-3.187-2.619-3.226
		c1.771-1.397,3.508-2.864,5.205-4.397c-2.581-1.047-5.162-2.096-7.743-3.143c1.336-0.781,2.583-1.798,3.691-3.011
		c-0.565-0.316-1.13-0.634-1.695-0.95c0.889-1.309,1.778-2.617,2.667-3.926c-2.529-0.765-5.06-1.529-7.589-2.295
		c0.89-1.412,1.677-2.926,2.347-4.514c-2.156-0.272-4.313-0.545-6.47-0.816c0.431-1.055,0.862-2.108,1.293-3.162
		c-1.691,0.061-3.387-0.809-2.938-2.849c0.431-1.964-0.079-3.577-0.901-5.715c-2.782,1.701-0.012,4.177-1.477,7.247
		c-1.799,3.772-3.834,7.37-6.082,10.75c0.691,0.454,1.382,0.908,2.073,1.362c-2.27,1.046-4.316,2.837-5.874,5.142
		c-3.453,0.939-6.792,2.528-9.867,4.695c1.697,0.975,3.394,1.948,5.09,2.922c-2.041,1.092-4.081,2.184-6.122,3.274
		c1.432,0.588,2.863,1.175,4.295,1.763c-2.959,1.305-5.845,2.867-8.629,4.672c2.675,1.568,5.349,3.136,8.023,4.703
		c-2.19,1.109-4.332,2.37-6.409,3.777c1.166,0.861,2.333,1.723,3.499,2.584c-1.214,0.394-1.509,2.335-1.57,3.894
		c-0.043,1.108-0.086,2.217-0.129,3.325c-1.749,0.793-3.498,1.586-5.247,2.379c-1.755-1.081-3.51-2.162-5.266-3.243
		c-0.039-1.368-0.078-2.736-0.117-4.104c-0.055-1.924-0.323-4.32-1.426-4.807c1.059-1.063,2.119-2.127,3.178-3.189
		c-1.888-1.736-3.833-3.293-5.823-4.662c2.43-1.935,4.86-3.869,7.29-5.805c-2.529-2.229-5.151-4.157-7.84-5.767
		c1.301-0.726,2.602-1.451,3.902-2.177c-1.854-1.347-3.708-2.693-5.563-4.041c1.542-1.202,3.083-2.404,4.625-3.606
		c-2.794-2.675-5.827-4.636-8.965-5.796c-1.416-2.846-3.274-5.056-5.337-6.346c0.628-0.561,1.255-1.122,1.883-1.683
		c-2.042-4.172-3.891-8.612-5.525-13.269c-1.331-3.79,1.187-6.846-1.342-8.945c-0.748,2.639-1.21,4.631-0.818,7.054
		c0.407,2.518-1.133,3.592-2.67,3.517c0.392,1.301,0.783,2.602,1.175,3.902c-1.959,0.336-3.919,0.672-5.878,1.008
		c0.609,1.961,1.324,3.828,2.133,5.571c-2.298,0.944-4.597,1.89-6.896,2.833c0.808,1.615,1.615,3.23,2.423,4.846
		c-0.513,0.391-1.027,0.782-1.54,1.173c1.007,1.497,2.14,2.752,3.354,3.716c-2.345,1.294-4.69,2.587-7.035,3.88
		c1.542,1.893,3.119,3.703,4.729,5.428c-1.934,0.074-3.17,4.685-1.905,7.158c0.68,1.331,1.906,2.188,1.932,3.946
		c0.022,1.53-0.914,2.536-1.738,3.17c-2.88,2.213-5.92,3.83-9.031,4.805c0.979,1.578,2.146,2.826,3.409,3.648
		c-2.281,1.404-4.562,2.809-6.843,4.213c1.396,2.22,2.791,4.438,4.187,6.657c0.414,0.659,0.865,1.487,0.771,2.435
		c-0.086,0.868-0.59,1.406-1.046,1.833c-1.917,1.794-3.834,3.589-5.752,5.383c-0.431,0.403-0.933,1.081-0.783,1.874
		c0.079,0.419,0.32,0.68,0.543,0.904c1.067,1.073,2.135,2.147,3.203,3.221c-0.678,0.696-1.359,1.382-2.039,2.072
		c-1.242-1.103-2.484-2.203-3.728-3.305c-0.475-0.422-1.001-0.953-1.091-1.811c-0.098-0.936,0.372-1.754,0.804-2.404
		c1.455-2.19,2.909-4.382,4.364-6.572c-2.378-1.388-4.756-2.774-7.134-4.161c1.317-0.812,2.532-2.044,3.554-3.603
		c-3.243-0.962-6.412-2.559-9.415-4.744c-0.859-0.626-1.834-1.619-1.812-3.13c0.027-1.736,1.304-2.583,2.014-3.897
		c1.317-2.442,0.03-6.994-1.987-7.067c1.678-1.703,3.323-3.491,4.93-5.36c-2.444-1.276-4.889-2.553-7.333-3.83
		c1.265-0.952,2.446-2.191,3.496-3.67c-0.535-0.386-1.07-0.771-1.605-1.158c0.842-1.595,1.684-3.189,2.526-4.783
		c-2.396-0.934-4.792-1.865-7.188-2.799c0.843-1.721,1.588-3.564,2.224-5.501c-2.042-0.331-4.085-0.663-6.128-0.995
		c0.408-1.284,0.816-2.568,1.225-3.854c-1.602,0.074-3.208-0.986-2.783-3.473c0.408-2.393-0.074-4.359-0.854-6.965
		c-2.635,2.073-0.011,5.091-1.398,8.834c-1.704,4.597-3.632,8.981-5.76,13.101c0.654,0.554,1.309,1.108,1.963,1.661
		c-2.15,1.275-4.088,3.457-5.563,6.266c-3.271,1.146-6.433,3.083-9.345,5.724c1.606,1.188,3.213,2.375,4.821,3.562
		c-1.933,1.33-3.866,2.66-5.799,3.99c1.356,0.717,2.712,1.433,4.068,2.149c-2.803,1.589-5.536,3.493-8.172,5.694
		c2.533,1.91,5.066,3.821,7.599,5.732c-2.075,1.351-4.103,2.888-6.07,4.603c1.104,1.05,2.209,2.1,3.313,3.149
		c-1.15,0.48-1.43,2.846-1.487,4.746c-0.041,1.351-0.082,2.702-0.123,4.053c-1.836,1.071-3.672,2.143-5.508,3.214
		c1.836,0.711,3.673,1.423,5.51,2.134c-4.3,1.993-8.6,3.985-12.899,5.979c-0.01-0.344-0.021-0.686-0.031-1.029
		c-0.033-1.082-0.192-2.432-0.848-2.705c0.63-0.599,1.259-1.197,1.889-1.796c-1.122-0.978-2.278-1.854-3.461-2.624
		c1.444-1.09,2.889-2.18,4.333-3.269c-1.503-1.255-3.062-2.341-4.66-3.247c0.773-0.408,1.546-0.816,2.319-1.225
		c-1.102-0.759-2.204-1.518-3.306-2.275c0.917-0.677,1.833-1.354,2.749-2.031c-1.661-1.506-3.464-2.609-5.328-3.263
		c-0.841-1.602-1.946-2.846-3.172-3.572c0.373-0.315,0.746-0.632,1.119-0.947c-1.214-2.349-2.313-4.849-3.285-7.47
		c-0.791-2.134,0.706-3.854-0.797-5.037c-0.445,1.486-0.72,2.607-0.487,3.972c0.242,1.417-0.673,2.022-1.587,1.979
		c0.232,0.732,0.465,1.465,0.698,2.197c-1.165,0.189-2.329,0.379-3.494,0.567c0.362,1.104,0.787,2.155,1.268,3.137
		c-1.366,0.532-2.732,1.063-4.098,1.596c0.479,0.909,0.96,1.818,1.44,2.728c-0.305,0.22-0.61,0.44-0.916,0.66
		c0.599,0.843,1.272,1.549,1.993,2.092c-1.394,0.729-2.787,1.456-4.181,2.185c0.917,1.065,1.854,2.085,2.811,3.056
		c-1.15,0.042-1.884,2.637-1.133,4.03c0.405,0.749,1.133,1.231,1.148,2.222c0.013,0.861-0.543,1.428-1.033,1.784
		c-1.711,1.246-3.519,2.157-5.367,2.705c0.582,0.889,1.275,1.591,2.026,2.055c-1.356,0.79-2.711,1.581-4.067,2.372
		c0.83,1.249,1.659,2.498,2.488,3.747c0.247,0.371,0.514,0.837,0.458,1.371c-0.051,0.488-0.352,0.792-0.622,1.032
		c-1.14,1.01-2.279,2.02-3.418,3.029c-0.256,0.228-0.555,0.609-0.466,1.056c0.034,0.169,0.119,0.284,0.211,0.386
		c-0.774-0.686-1.548-1.372-2.323-2.059c-0.201-0.178-0.424-0.403-0.462-0.767c-0.042-0.396,0.158-0.742,0.34-1.019
		c0.616-0.928,1.232-1.855,1.848-2.783c-1.007-0.587-2.014-1.175-3.021-1.762c0.558-0.344,1.072-0.866,1.505-1.526
		c-1.373-0.407-2.715-1.083-3.987-2.009c-0.364-0.265-0.777-0.686-0.767-1.325c0.011-0.735,0.552-1.094,0.853-1.65
		c0.559-1.034,0.013-2.962-0.841-2.993c0.71-0.722,1.407-1.479,2.087-2.27c-1.035-0.541-2.07-1.082-3.105-1.623
		c0.536-0.402,1.036-0.928,1.48-1.554c-0.227-0.163-0.454-0.327-0.68-0.491c0.357-0.675,0.713-1.35,1.07-2.025
		c-1.015-0.395-2.03-0.79-3.044-1.185c0.357-0.729,0.672-1.51,0.942-2.33c-0.865-0.141-1.73-0.281-2.596-0.421
		c0.173-0.545,0.346-1.088,0.519-1.633c-0.679,0.032-1.358-0.417-1.179-1.471c0.173-1.013-0.032-1.846-0.362-2.949
		c-1.116,0.878-0.005,2.156-0.592,3.74c-0.722,1.947-1.538,3.805-2.439,5.549c0.277,0.234,0.554,0.469,0.831,0.704
		c-0.911,0.54-1.731,1.464-2.356,2.653c-1.385,0.485-2.724,1.305-3.958,2.424c0.681,0.503,1.361,1.006,2.042,1.508
		c-0.818,0.563-1.637,1.127-2.456,1.69c0.574,0.303,1.148,0.606,1.723,0.91c-1.187,0.673-2.344,1.479-3.461,2.411
		c1.073,0.81,2.146,1.618,3.218,2.428c-0.879,0.572-1.738,1.223-2.571,1.949c0.468,0.444,0.936,0.889,1.403,1.334
		c-0.487,0.203-0.605,1.205-0.63,2.01c-0.017,0.572-0.034,1.145-0.052,1.717c-0.777,0.453-1.555,0.907-2.333,1.36
		c0.778,0.302,1.556,0.603,2.333,0.904c-1.222,0.566-2.445,1.133-3.667,1.699c-0.304-0.269-0.606-0.537-0.91-0.806
		c-0.271-0.24-0.571-0.544-0.622-1.033c-0.056-0.533,0.212-0.999,0.458-1.369c0.83-1.25,1.659-2.499,2.489-3.748
		c-1.356-0.791-2.712-1.582-4.067-2.373c0.75-0.463,1.443-1.165,2.026-2.054c-1.849-0.548-3.656-1.459-5.368-2.705
		c-0.49-0.356-1.046-0.923-1.033-1.784c0.015-0.99,0.744-1.473,1.148-2.222c0.751-1.394,0.017-3.988-1.132-4.03
		c0.957-0.971,1.894-1.99,2.811-3.056c-1.394-0.728-2.788-1.456-4.181-2.185c0.722-0.543,1.395-1.249,1.993-2.092
		c-0.305-0.221-0.61-0.44-0.915-0.66c0.48-0.909,0.96-1.818,1.44-2.729c-1.366-0.531-2.732-1.063-4.098-1.595
		c0.48-0.981,0.905-2.032,1.268-3.137c-1.165-0.188-2.329-0.378-3.494-0.567c0.233-0.732,0.466-1.465,0.698-2.197
		c-0.913,0.043-1.829-0.562-1.587-1.979c0.233-1.364-0.042-2.485-0.486-3.972c-1.502,1.183-0.006,2.903-0.797,5.037
		c-0.971,2.621-2.071,5.121-3.284,7.47c0.373,0.315,0.746,0.632,1.119,0.947c-1.226,0.727-2.331,1.971-3.172,3.572
		c-1.865,0.653-3.667,1.757-5.328,3.263c0.916,0.678,1.833,1.354,2.749,2.031c-1.102,0.758-2.204,1.517-3.306,2.275
		c0.773,0.408,1.546,0.816,2.319,1.225c-1.598,0.906-3.156,1.992-4.66,3.247c1.444,1.089,2.889,2.179,4.333,3.269
		c-0.166,0.107-0.326,0.232-0.49,0.345c-4.165-1.339-8.234-3.433-12.101-6.247c-1.18-0.859-2.519-2.223-2.487-4.297
		c0.037-2.384,1.791-3.545,2.765-5.35c1.81-3.354,0.041-9.603-2.727-9.703c2.303-2.338,4.561-4.792,6.768-7.358
		c-3.356-1.753-6.711-3.505-10.067-5.258c1.737-1.308,3.357-3.009,4.799-5.038c-0.734-0.529-1.469-1.061-2.204-1.59
		c1.156-2.189,2.312-4.379,3.468-6.567c-3.29-1.28-6.579-2.562-9.868-3.841c1.157-2.363,2.18-4.895,3.052-7.553
		c-2.804-0.455-5.608-0.91-8.412-1.366c0.561-1.763,1.121-3.526,1.681-5.29c-2.2,0.102-4.403-1.354-3.821-4.768
		c0.561-3.284-0.102-5.984-1.172-9.562c-3.617,2.847-0.016,6.989-1.919,12.127c-2.339,6.312-4.986,12.331-7.908,17.985
		c0.898,0.761,1.796,1.521,2.694,2.281c-2.952,1.749-5.611,4.745-7.637,8.602c-4.49,1.572-8.83,4.23-12.829,7.856
		c2.206,1.63,4.412,3.26,6.618,4.89c-2.653,1.826-5.307,3.652-7.96,5.479c1.861,0.982,3.723,1.966,5.584,2.949
		c-3.848,2.182-7.6,4.797-11.219,7.817c3.477,2.623,6.954,5.246,10.432,7.869c-2.479,1.614-4.906,3.435-7.276,5.429
		c-2.55-1.487-5.1-2.975-7.65-4.462c1.605-0.99,3.086-2.492,4.332-4.393c-3.953-1.172-7.816-3.119-11.477-5.782
		c-1.048-0.764-2.237-1.975-2.208-3.816c0.033-2.116,1.59-3.147,2.455-4.75c1.607-2.979,0.037-8.526-2.421-8.616
		c2.045-2.076,4.05-4.256,6.01-6.534c-2.98-1.557-5.96-3.112-8.939-4.669c1.542-1.161,2.981-2.672,4.261-4.473
		c-0.652-0.472-1.305-0.942-1.957-1.413c1.027-1.943,2.053-3.888,3.08-5.832c-2.92-1.137-5.841-2.273-8.762-3.41
		c1.027-2.099,1.936-4.346,2.71-6.706c-2.49-0.404-4.979-0.809-7.47-1.213c0.498-1.565,0.995-3.132,1.493-4.698
		c-1.953,0.091-3.91-1.202-3.393-4.232c0.498-2.917-0.09-5.315-1.04-8.491c-3.212,2.528-0.014,6.206-1.705,10.769
		c-2.077,5.604-4.427,10.949-7.022,15.971c0.798,0.675,1.595,1.351,2.393,2.025c-2.621,1.554-4.983,4.213-6.782,7.639
		c-3.987,1.396-7.841,3.757-11.392,6.977c1.959,1.447,3.918,2.895,5.877,4.342c-2.356,1.621-4.712,3.242-7.068,4.864
		c1.653,0.872,3.306,1.746,4.959,2.619c-3.417,1.938-6.749,4.259-9.962,6.942c1.8,1.357,3.601,2.716,5.401,4.073
		c-5.737-1.436-11.343-3.678-16.67-6.69c-1.628-0.921-3.474-2.383-3.43-4.605c0.05-2.555,2.469-3.8,3.812-5.733
		c2.496-3.595,0.058-10.291-3.76-10.399c3.177-2.506,6.29-5.136,9.334-7.886c-4.628-1.879-9.257-3.757-13.885-5.636
		c2.395-1.401,4.63-3.225,6.618-5.398c-1.013-0.568-2.026-1.137-3.039-1.705c1.594-2.346,3.188-4.692,4.782-7.038
		c-4.536-1.372-9.073-2.745-13.609-4.116c1.596-2.533,3.007-5.246,4.21-8.095c-3.868-0.488-7.735-0.976-11.603-1.464
		c0.772-1.89,1.546-3.779,2.318-5.67c-3.033,0.109-6.073-1.451-5.27-5.109c0.773-3.52-0.141-6.414-1.616-10.248
		c-4.989,3.051-0.021,7.491-2.647,12.997c-3.226,6.765-6.876,13.216-10.906,19.276c1.239,0.814,2.478,1.629,3.717,2.444
		c-4.072,1.875-7.74,5.085-10.534,9.219c-6.192,1.686-12.179,4.534-17.694,8.42c3.043,1.747,6.085,3.494,9.128,5.241
		c-3.66,1.957-7.319,3.914-10.979,5.871c2.567,1.053,5.135,2.107,7.702,3.161c-5.307,2.339-10.481,5.141-15.473,8.378
		c4.796,2.811,9.592,5.622,14.388,8.434c-3.929,1.988-7.768,4.25-11.493,6.772c2.091,1.544,4.182,3.089,6.273,4.634
		c-2.177,0.707-2.706,4.188-2.815,6.982c-0.077,1.988-0.154,3.976-0.231,5.964c-3.477,1.575-6.953,3.151-10.43,4.728
		c3.478,1.047,6.955,2.094,10.433,3.141c-0.92,0.331-1.84,0.662-2.76,0.993c-2.583-0.789-5.108-1.872-7.529-3.241
		c-0.908-0.514-1.938-1.328-1.913-2.568c0.028-1.424,1.377-2.119,2.126-3.197c1.392-2.004,0.032-5.738-2.097-5.799
		c1.771-1.397,3.508-2.864,5.205-4.397c-2.581-1.048-5.162-2.095-7.743-3.143c1.336-0.782,2.583-1.798,3.691-3.011
		c-0.565-0.316-1.13-0.634-1.695-0.951c0.889-1.308,1.778-2.616,2.667-3.925c-2.53-0.765-5.06-1.53-7.589-2.296
		c0.89-1.412,1.677-2.924,2.348-4.514c-2.157-0.271-4.313-0.544-6.47-0.815c0.431-1.054,0.862-2.108,1.293-3.162
		c-1.691,0.061-3.387-0.81-2.938-2.849c0.431-1.964-0.079-3.578-0.901-5.715c-2.782,1.701-0.012,4.177-1.477,7.247
		c-1.799,3.772-3.834,7.37-6.082,10.749c0.691,0.455,1.381,0.909,2.073,1.363c-2.271,1.046-4.316,2.836-5.875,5.141
		c-3.453,0.94-6.792,2.529-9.867,4.696c1.697,0.974,3.394,1.948,5.09,2.923c-2.041,1.091-4.081,2.182-6.122,3.273
		c1.432,0.588,2.863,1.175,4.295,1.763c-2.959,1.304-5.845,2.866-8.628,4.672c2.674,1.567,5.349,3.136,8.023,4.703
		c-2.19,1.108-4.332,2.37-6.409,3.776c1.167,0.861,2.333,1.724,3.499,2.584c-1.214,0.395-1.509,2.336-1.57,3.895
		c-0.043,1.108-0.086,2.217-0.129,3.325c-1.938,0.879-3.877,1.758-5.816,2.637c1.939,0.583,3.878,1.167,5.817,1.751
		c-2.871,1.034-5.742,2.068-8.613,3.102c-0.249-0.289-0.441-0.627-0.497-1.045c-0.127-0.947,0.485-1.775,1.047-2.434
		c1.896-2.22,3.792-4.438,5.688-6.657c-3.099-1.405-6.198-2.81-9.297-4.214c1.716-0.822,3.3-2.07,4.631-3.648
		c-4.226-0.975-8.356-2.592-12.269-4.805c-1.12-0.634-2.391-1.64-2.361-3.17c0.035-1.758,1.7-2.615,2.624-3.946
		c1.718-2.474,0.04-7.083-2.588-7.158c2.187-1.725,4.33-3.535,6.425-5.428c-3.186-1.293-6.372-2.586-9.557-3.879
		c1.649-0.965,3.188-2.22,4.556-3.716c-0.697-0.392-1.395-0.783-2.092-1.174c1.097-1.615,2.194-3.23,3.292-4.845
		c-3.123-0.944-6.246-1.889-9.368-2.833c1.099-1.744,2.069-3.611,2.897-5.572c-2.662-0.336-5.324-0.671-7.986-1.008
		c0.532-1.301,1.064-2.602,1.596-3.902c-2.088,0.075-4.181-0.999-3.628-3.517c0.532-2.423-0.097-4.415-1.112-7.054
		c-3.434,2.1-0.015,5.156-1.822,8.945c-2.22,4.656-4.733,9.098-7.507,13.269c0.853,0.561,1.705,1.122,2.558,1.683
		c-2.802,1.291-5.328,3.5-7.25,6.346c-4.262,1.16-8.383,3.121-12.179,5.796c2.094,1.202,4.188,2.405,6.283,3.607
		c-2.519,1.347-5.038,2.693-7.557,4.041c1.768,0.725,3.534,1.45,5.302,2.176c-3.653,1.61-7.215,3.538-10.651,5.767
		c3.301,1.936,6.603,3.87,9.904,5.806c-2.705,1.368-5.347,2.925-7.911,4.661c1.439,1.063,2.878,2.126,4.318,3.189
		c-1.499,0.486-1.863,2.883-1.938,4.807c-0.053,1.368-0.106,2.736-0.159,4.104c-2.393,1.085-4.786,2.17-7.179,3.255
		c2.394,0.721,4.787,1.441,7.181,2.161c-1.976,0.712-3.951,1.423-5.926,2.134c-1.095-0.394-2.19-0.788-3.285-1.182
		c0.841-0.254,1.683-0.507,2.524-0.76c-0.841-0.382-1.682-0.764-2.523-1.145c-0.019-0.48-0.038-0.962-0.056-1.442
		c-0.026-0.677-0.154-1.519-0.681-1.689c0.506-0.374,1.012-0.747,1.518-1.121c-0.901-0.61-1.83-1.157-2.78-1.638
		c1.16-0.681,2.32-1.36,3.48-2.041c-1.208-0.783-2.459-1.461-3.743-2.026c0.621-0.255,1.242-0.51,1.863-0.765
		c-0.885-0.474-1.771-0.947-2.656-1.42c0.736-0.423,1.472-0.846,2.208-1.269c-1.334-0.939-2.782-1.629-4.28-2.037
		c-0.676-1-1.563-1.776-2.548-2.229c0.3-0.197,0.6-0.395,0.899-0.592c-0.975-1.466-1.858-3.027-2.639-4.663
		c-0.635-1.332,0.566-2.405-0.641-3.144c-0.356,0.927-0.578,1.627-0.391,2.479c0.194,0.885-0.541,1.263-1.275,1.236
		c0.187,0.457,0.374,0.914,0.561,1.371c-0.936,0.118-1.871,0.236-2.807,0.354c0.291,0.689,0.632,1.345,1.018,1.958
		c-1.097,0.332-2.195,0.664-3.292,0.996c0.386,0.567,0.771,1.135,1.157,1.703c-0.245,0.137-0.49,0.274-0.735,0.412
		c0.481,0.525,1.021,0.967,1.601,1.306c-1.12,0.454-2.239,0.909-3.359,1.363c0.736,0.665,1.489,1.302,2.258,1.907
		c-0.923,0.027-1.513,1.646-0.909,2.517c0.324,0.468,0.91,0.769,0.922,1.387c0.011,0.538-0.436,0.892-0.83,1.114
		c-0.95,0.537-1.938,0.967-2.947,1.299c-2.256-1.315-4.512-2.631-6.768-3.947c1.317-0.813,2.532-2.044,3.554-3.603
		c-3.243-0.962-6.412-2.56-9.414-4.744c-0.86-0.626-1.835-1.619-1.812-3.13c0.027-1.736,1.305-2.582,2.014-3.896
		c1.318-2.443,0.03-6.995-1.986-7.068c1.678-1.703,3.322-3.491,4.93-5.36c-2.444-1.276-4.889-2.554-7.333-3.83
		c1.266-0.952,2.446-2.191,3.496-3.669c-0.535-0.387-1.07-0.773-1.605-1.159c0.842-1.595,1.684-3.189,2.526-4.784
		c-2.396-0.933-4.792-1.865-7.188-2.797c0.843-1.722,1.588-3.566,2.224-5.502c-2.043-0.332-4.085-0.663-6.128-0.995
		c0.408-1.284,0.816-2.569,1.225-3.854c-1.603,0.074-3.208-0.986-2.783-3.472c0.408-2.394-0.074-4.361-0.854-6.966
		c-2.634,2.073-0.011,5.091-1.398,8.833c-1.704,4.598-3.632,8.982-5.76,13.102c0.654,0.554,1.309,1.107,1.963,1.661
		c-2.15,1.274-4.088,3.457-5.563,6.267c-3.27,1.146-6.432,3.082-9.345,5.723c1.607,1.188,3.214,2.375,4.821,3.562
		c-1.933,1.33-3.866,2.661-5.799,3.991c1.356,0.716,2.712,1.432,4.068,2.148c-2.803,1.589-5.536,3.493-8.173,5.694
		c2.533,1.91,5.066,3.821,7.6,5.731c-1.807,1.177-3.574,2.502-5.3,3.954c-1.858-1.083-3.715-2.167-5.573-3.25
		c1.169-0.722,2.249-1.815,3.155-3.199c-2.879-0.854-5.693-2.272-8.359-4.212c-0.763-0.556-1.629-1.438-1.608-2.779
		c0.023-1.542,1.158-2.294,1.788-3.461c1.17-2.17,0.026-6.211-1.764-6.276c1.49-1.513,2.95-3.1,4.377-4.759
		c-2.17-1.135-4.341-2.268-6.512-3.402c1.124-0.846,2.172-1.945,3.104-3.258c-0.476-0.343-0.95-0.686-1.426-1.029
		c0.748-1.416,1.496-2.832,2.243-4.248c-2.128-0.828-4.255-1.656-6.383-2.484c0.749-1.528,1.41-3.165,1.975-4.885
		c-1.814-0.295-3.628-0.589-5.442-0.884c0.363-1.14,0.725-2.281,1.087-3.422c-1.422,0.066-2.848-0.876-2.471-3.083
		c0.362-2.125-0.066-3.872-0.758-6.186c-2.34,1.842-0.01,4.521-1.241,7.844c-1.513,4.083-3.225,7.977-5.115,11.635
		c0.581,0.491,1.162,0.982,1.743,1.475c-1.91,1.132-3.63,3.069-4.94,5.564c-2.904,1.018-5.711,2.736-8.298,5.082
		c1.427,1.054,2.854,2.108,4.281,3.162c-1.716,1.182-3.433,2.362-5.149,3.543c1.204,0.637,2.408,1.273,3.612,1.908
		c-2.489,1.412-4.916,3.103-7.257,5.057c1.312,0.99,2.623,1.979,3.934,2.968c-4.179-1.046-8.263-2.679-12.143-4.874
		c-1.186-0.67-2.531-1.734-2.499-3.354c0.037-1.861,1.799-2.768,2.777-4.177c1.818-2.618,0.042-7.497-2.739-7.575
		c2.314-1.825,4.582-3.741,6.799-5.744c-3.372-1.369-6.743-2.737-10.114-4.105c1.745-1.021,3.373-2.349,4.821-3.933
		c-0.738-0.414-1.476-0.828-2.214-1.241c1.161-1.71,2.323-3.419,3.484-5.128c-3.305-0.999-6.609-1.999-9.914-2.998
		c1.163-1.845,2.19-3.821,3.066-5.896c-2.817-0.355-5.634-0.711-8.451-1.066c0.563-1.376,1.126-2.753,1.689-4.13
		c-2.209,0.079-4.424-1.057-3.838-3.722c0.563-2.564-0.103-4.673-1.178-7.465c-3.634,2.222-0.015,5.456-1.928,9.467
		c-2.35,4.928-5.009,9.627-7.945,14.042c0.902,0.594,1.805,1.187,2.708,1.78c-2.966,1.366-5.638,3.704-7.673,6.715
		c-4.51,1.229-8.871,3.304-12.889,6.134c2.217,1.272,4.433,2.545,6.649,3.818c-2.666,1.425-5.332,2.851-7.998,4.275
		c1.871,0.768,3.741,1.535,5.611,2.303c-3.866,1.704-7.635,3.745-11.271,6.104c3.494,2.048,6.987,4.096,10.48,6.144
		c-2.862,1.448-5.658,3.096-8.372,4.933c1.523,1.125,3.046,2.251,4.57,3.376c-1.586,0.515-1.971,3.05-2.05,5.086
		c-0.056,1.448-0.112,2.896-0.169,4.345c-2.532,1.147-5.064,2.296-7.597,3.443c2.533,0.763,5.066,1.525,7.599,2.287
		c-3.614,1.302-7.228,2.604-10.841,3.904c-0.374-0.17-0.749-0.339-1.123-0.509c1.25-0.599,2.404-1.508,3.374-2.658
		c-3.079-0.709-6.087-1.888-8.938-3.499c-0.816-0.462-1.742-1.195-1.72-2.31c0.025-1.28,1.238-1.905,1.912-2.874
		c1.251-1.803,0.029-5.16-1.885-5.215c1.593-1.256,3.154-2.575,4.68-3.953c-2.32-0.942-4.641-1.885-6.961-2.826
		c1.201-0.703,2.322-1.617,3.318-2.707c-0.508-0.285-1.016-0.57-1.524-0.854c0.799-1.177,1.599-2.353,2.398-3.529
		c-2.274-0.688-4.549-1.376-6.824-2.063c0.8-1.271,1.508-2.631,2.11-4.059c-1.939-0.245-3.878-0.49-5.817-0.734
		c0.388-0.947,0.775-1.896,1.163-2.843c-1.521,0.055-3.045-0.728-2.643-2.562c0.388-1.766-0.07-3.217-0.811-5.139
		c-2.501,1.529-0.01,3.756-1.327,6.517c-1.617,3.392-3.448,6.626-5.468,9.665c0.621,0.408,1.242,0.817,1.863,1.226
		c-2.042,0.94-3.88,2.55-5.282,4.622c-3.104,0.846-6.106,2.273-8.871,4.223c1.525,0.875,3.051,1.751,4.577,2.627
		c-1.835,0.981-3.67,1.963-5.505,2.943c1.288,0.529,2.575,1.057,3.862,1.586c-2.661,1.172-5.255,2.577-7.758,4.201
		c2.405,1.409,4.809,2.818,7.214,4.229c-1.97,0.996-3.895,2.131-5.763,3.395c1.048,0.774,2.097,1.549,3.145,2.324
		c-1.091,0.354-1.357,2.1-1.411,3.501c-0.039,0.997-0.078,1.993-0.116,2.989c-0.905,0.411-1.81,0.821-2.715,1.231
		c-4.042-0.086-8.084-0.175-12.127-0.265c1.857-0.689,3.713-1.378,5.57-2.066c-2.055-1.148-4.11-2.296-6.166-3.444
		c-0.046-1.448-0.091-2.896-0.137-4.344c-0.064-2.036-0.377-4.571-1.664-5.086c1.236-1.126,2.473-2.251,3.709-3.376
		c-2.203-1.837-4.472-3.485-6.795-4.934c2.835-2.047,5.671-4.095,8.506-6.143c-2.951-2.358-6.01-4.399-9.147-6.104
		c1.518-0.768,3.036-1.535,4.554-2.303c-2.164-1.426-4.327-2.851-6.491-4.276c1.799-1.272,3.598-2.545,5.396-3.817
		c-3.26-2.83-6.799-4.906-10.46-6.134c-1.652-3.011-3.82-5.35-6.228-6.716c0.732-0.593,1.465-1.187,2.197-1.779
		c-2.383-4.415-4.541-9.114-6.448-14.042c-1.552-4.011,1.384-7.245-1.565-9.468c-0.872,2.793-1.413,4.901-0.956,7.466
		c0.475,2.664-1.322,3.801-3.115,3.722c0.457,1.376,0.914,2.753,1.371,4.13c-2.286,0.355-4.573,0.711-6.859,1.066
		c0.711,2.075,1.546,4.051,2.489,5.896c-2.682,1-5.364,2-8.046,2.999c0.942,1.709,1.885,3.418,2.827,5.127
		c-0.599,0.414-1.198,0.828-1.797,1.241c1.175,1.584,2.497,2.912,3.913,3.934c-2.736,1.368-5.473,2.736-8.208,4.104
		c1.799,2.003,3.64,3.919,5.518,5.744c-2.257,0.079-3.699,4.957-2.223,7.575c0.794,1.409,2.224,2.316,2.254,4.177
		c0.026,1.619-1.066,2.685-2.028,3.354c-3.36,2.342-6.908,4.054-10.538,5.084c1.143,1.671,2.503,2.991,3.978,3.861
		c-1.765,0.986-3.531,1.972-5.295,2.958c0.596-0.636,1.191-1.271,1.787-1.906c0.229-0.243,0.474-0.524,0.533-0.959
		c0.114-0.823-0.473-1.491-0.965-1.882c-2.19-1.733-4.38-3.468-6.57-5.201c-0.521-0.413-1.101-0.938-1.249-1.824
		c-0.16-0.969,0.277-1.845,0.686-2.545c1.376-2.358,2.752-4.717,4.129-7.076c-2.561-1.313-5.122-2.626-7.682-3.939
		c1.319-0.916,2.506-2.265,3.471-3.941c-3.434-0.824-6.831-2.313-10.091-4.422c-0.933-0.604-2.01-1.585-2.081-3.158
		c-0.081-1.807,1.195-2.757,1.851-4.163c1.218-2.613-0.407-7.278-2.509-7.245c1.639-1.863,3.237-3.813,4.792-5.845
		c-2.623-1.195-5.246-2.39-7.869-3.585c1.256-1.06,2.407-2.414,3.406-4.008c-0.581-0.373-1.162-0.745-1.742-1.118
		c0.776-1.704,1.552-3.409,2.328-5.114c-2.551-0.84-5.103-1.68-7.653-2.519c0.769-1.837,1.429-3.796,1.968-5.845
		c-2.146-0.234-4.292-0.468-6.437-0.701c0.344-1.358,0.688-2.717,1.032-4.076c-1.662,0.165-3.398-0.851-3.113-3.461
		c0.275-2.511-0.351-4.531-1.325-7.199c-2.611,2.301,0.308,5.297-0.901,9.266c-1.485,4.876-3.215,9.543-5.172,13.944
		c0.715,0.54,1.431,1.081,2.146,1.621c-2.157,1.443-4.036,3.819-5.395,6.822c-3.331,1.37-6.499,3.557-9.364,6.463
		c1.747,1.147,3.493,2.296,5.239,3.442c-1.928,1.49-3.855,2.979-5.783,4.468c1.456,0.671,2.911,1.343,4.366,2.014
		c-2.816,1.807-5.54,3.937-8.145,6.37c2.755,1.85,5.51,3.699,8.265,5.549c-1.83,1.34-3.609,2.837-5.335,4.468
		c-1.263-0.662-2.516-1.384-3.755-2.168c-1.376-0.87-2.969-2.29-3.098-4.591c-0.149-2.645,1.703-4.054,2.639-6.121
		c1.74-3.843-0.716-10.647-3.792-10.568c2.368-2.75,4.675-5.627,6.917-8.623c-3.858-1.711-7.718-3.422-11.577-5.133
		c1.822-1.57,3.483-3.567,4.919-5.916c-0.856-0.537-1.713-1.074-2.569-1.611c1.107-2.506,2.215-5.013,3.322-7.52
		c-3.748-1.191-7.496-2.383-11.243-3.575c1.095-2.7,2.028-5.576,2.784-8.583c-3.145-0.311-6.289-0.621-9.434-0.933
		c0.481-1.993,0.963-3.987,1.444-5.98c-2.43,0.265-4.989-1.196-4.614-5.021c0.36-3.68-0.588-6.627-2.058-10.519
		c-3.784,3.405,0.538,7.749-1.165,13.575c-2.092,7.158-4.547,14.014-7.338,20.483c1.056,0.781,2.112,1.562,3.168,2.342
		c-3.133,2.144-5.844,5.648-7.783,10.063c-4.015,1.699-7.853,4.227-11.408,7.479c-3.153-1.741-6.256-3.713-9.292-5.923
		c-2.239-1.63-4.779-4.217-4.718-8.151c0.069-4.522,3.397-6.726,5.244-10.148c3.434-6.363,0.079-18.217-5.172-18.408
		c4.37-4.436,8.653-9.091,12.839-13.959c-6.366-3.325-12.732-6.65-19.098-9.975c3.295-2.48,6.369-5.709,9.104-9.557
		c-1.394-1.006-2.787-2.012-4.181-3.018c2.193-4.153,4.386-8.307,6.579-12.459c-6.24-2.43-12.48-4.857-18.721-7.287
		c2.195-4.482,4.136-9.285,5.791-14.327c-5.32-0.864-10.639-1.728-15.959-2.591c1.063-3.346,2.126-6.691,3.189-10.037
		c-4.172,0.193-8.354-2.568-7.249-9.043c1.063-6.231-0.193-11.354-2.223-18.14c-6.863,5.4-0.029,13.259-3.641,23.005
		c-4.438,11.974-9.458,23.394-15.002,34.121c1.704,1.441,3.408,2.884,5.112,4.326c-5.601,3.319-10.646,9.002-14.489,16.318
		c-8.517,2.984-16.751,8.027-24.338,14.905c4.186,3.092,8.371,6.185,12.556,9.276c-5.034,3.464-10.067,6.928-15.102,10.392
		c3.532,1.865,7.063,3.731,10.594,5.597c-7.299,4.139-14.417,9.099-21.283,14.83c6.597,4.976,13.194,9.952,19.791,14.928
		c-5.404,3.519-10.685,7.523-15.809,11.987c2.876,2.734,5.752,5.469,8.628,8.203c-2.994,1.251-3.722,7.412-3.871,12.359
		c-0.09,2.968-0.179,5.937-0.269,8.904c-3.498-1.25-6.949-2.959-10.3-5.128c-1.366-0.885-2.942-2.319-3.045-4.621
		c-0.119-2.646,1.749-4.037,2.708-6.096c1.783-3.824-0.595-10.652-3.672-10.604c2.399-2.728,4.739-5.581,7.016-8.555
		c-3.84-1.75-7.679-3.499-11.518-5.248c1.839-1.551,3.523-3.532,4.986-5.866c-0.85-0.546-1.701-1.091-2.551-1.637
		c1.136-2.495,2.272-4.99,3.408-7.486c-3.734-1.229-7.468-2.458-11.202-3.687c1.125-2.688,2.091-5.556,2.881-8.555
		c-3.141-0.342-6.282-0.684-9.422-1.025c0.504-1.988,1.008-3.978,1.512-5.966c-2.433,0.241-4.975-1.246-4.557-5.066
		c0.402-3.676-0.513-6.633-1.938-10.538c-3.822,3.368,0.45,7.754-1.319,13.563c-2.173,7.137-4.707,13.968-7.57,20.41
		c1.047,0.791,2.094,1.582,3.142,2.373c-3.157,2.112-5.908,5.59-7.897,9.985c-4.875,2.006-9.512,5.206-13.706,9.46
		c2.556,1.681,5.112,3.359,7.668,5.04c-2.821,2.18-5.643,4.358-8.464,6.538c2.13,0.982,4.261,1.965,6.392,2.947
		c-4.122,2.645-8.109,5.763-11.922,9.324c4.033,2.707,8.065,5.414,12.097,8.121c-1.152,0.844-2.286,1.74-3.411,2.663
		c-3.702-1.852-7.333-4.065-10.863-6.635c-1.988-1.447-4.243-3.745-4.189-7.239c0.062-4.015,3.017-5.972,4.656-9.012
		c3.049-5.649,0.07-16.176-4.593-16.346c3.88-3.938,7.683-8.072,11.4-12.395c-5.653-2.953-11.306-5.906-16.958-8.858
		c2.925-2.202,5.656-5.068,8.083-8.485c-1.237-0.894-2.475-1.787-3.712-2.68c1.948-3.688,3.895-7.376,5.842-11.063
		c-5.541-2.157-11.082-4.313-16.623-6.471c1.949-3.98,3.672-8.245,5.142-12.723c-4.724-0.767-9.448-1.533-14.172-2.3
		c0.944-2.971,1.889-5.941,2.833-8.912c-3.705,0.171-7.418-2.281-6.437-8.031c0.944-5.533-0.171-10.083-1.974-16.107
		c-6.094,4.795-0.026,11.773-3.233,20.428c-3.94,10.633-8.399,20.773-13.321,30.299c1.513,1.281,3.026,2.562,4.539,3.842
		c-4.973,2.947-9.453,7.994-12.866,14.49c-6.652,2.33-13.109,6.078-19.152,11.103c-6.611-2.206-13.223-4.413-19.833-6.619
		c4.579-2.202,8.852-5.068,12.651-8.485c-1.937-0.894-3.874-1.787-5.81-2.68c3.048-3.688,6.095-7.376,9.143-11.063
		c-8.672-2.157-17.344-4.313-26.016-6.47c3.05-3.981,5.748-8.246,8.047-12.724c-7.393-0.767-14.786-1.533-22.179-2.301
		c1.478-2.971,2.955-5.941,4.432-8.912c-5.798,0.172-11.609-2.28-10.074-8.03c1.478-5.533-0.268-10.083-3.089-16.107
		c-9.537,4.795-0.041,11.773-5.06,20.428c-6.167,10.633-13.145,20.772-20.849,30.299c2.368,1.28,4.736,2.562,7.105,3.842
		c-7.783,2.947-14.795,7.994-20.136,14.49c-11.836,2.649-23.28,7.128-33.823,13.235c5.816,2.746,11.633,5.491,17.449,8.237
		c-6.996,3.076-13.992,6.152-20.987,9.228c4.908,1.657,9.815,3.313,14.723,4.97c-10.144,3.676-20.036,8.08-29.579,13.169
		c9.168,4.419,18.336,8.837,27.504,13.256c-7.51,3.124-14.849,6.68-21.97,10.645c3.997,2.428,7.994,4.856,11.991,7.284
		c-3.112,0.83-4.461,4.099-5.031,7.532c-5.791-0.341-11.579-0.688-17.364-1.046c0.131-0.819,0.565-1.548,0.974-2.155
		c1.808-2.688,3.618-5.38,5.425-8.069c-2.955-1.703-5.913-3.405-8.869-5.109c1.636-0.996,3.146-2.509,4.417-4.424
		c-4.033-1.181-7.973-3.14-11.707-5.824c-1.068-0.768-2.281-1.987-2.251-3.841c0.033-2.133,1.622-3.171,2.503-4.784
		c1.638-3.001,0.038-8.588-2.47-8.678c2.086-2.092,4.131-4.285,6.13-6.581c-3.04-1.567-6.078-3.136-9.118-4.703
		c1.572-1.17,3.04-2.69,4.346-4.505c-0.665-0.475-1.329-0.947-1.996-1.422c1.049-1.957,2.095-3.916,3.142-5.873
		c-2.979-1.146-5.958-2.291-8.937-3.437c1.046-2.113,1.975-4.376,2.764-6.755c-2.541-0.406-5.081-0.813-7.619-1.22
		c0.506-1.576,1.013-3.155,1.522-4.731c-1.994,0.09-3.99-1.212-3.462-4.264c0.509-2.938-0.092-5.354-1.061-8.553
		c-3.276,2.547-0.014,6.251-1.739,10.846c-2.119,5.645-4.516,11.029-7.163,16.086c0.813,0.68,1.629,1.358,2.442,2.04
		c-2.675,1.563-5.084,4.243-6.92,7.691c-4.065,1.407-7.997,3.786-11.619,7.026c1.999,1.458,3.997,2.916,5.996,4.373
		c-2.404,1.634-4.808,3.268-7.212,4.899c1.688,0.879,3.373,1.759,5.058,2.638c-3.483,1.953-6.882,4.29-10.161,6.992
		c3.149,2.346,6.3,4.691,9.449,7.038c-2.581,1.657-5.103,3.546-7.549,5.65c1.374,1.288,2.748,2.579,4.12,3.867
		c-1.428,0.589-1.777,3.493-1.848,5.827c-0.028,0.896-0.054,1.793-0.083,2.69c-4.068-2.342-8.133-4.683-12.201-7.026
		c-0.095-3.059-0.187-6.117-0.281-9.176c-0.132-4.301-0.773-9.656-3.408-10.742c2.532-2.377,5.065-4.754,7.596-7.131
		c-4.511-3.88-9.159-7.36-13.917-10.419c5.807-4.325,11.615-8.649,17.422-12.975c-6.045-4.981-12.31-9.291-18.737-12.89
		c3.108-1.621,6.217-3.244,9.328-4.864c-4.433-3.01-8.864-6.022-13.295-9.032c3.684-2.688,7.368-5.375,11.054-8.063
		c-6.679-5.979-13.929-10.361-21.426-12.956c-3.382-6.358-7.825-11.299-12.755-14.184c1.501-1.253,3-2.507,4.501-3.76
		c-4.881-9.325-9.3-19.249-13.208-29.657c-3.18-8.472,2.835-15.301-3.206-19.995c-1.787,5.896-2.892,10.351-1.956,15.767
		c0.971,5.629-2.708,8.027-6.382,7.86c0.936,2.909,1.872,5.815,2.807,8.724c-4.683,0.75-9.366,1.5-14.049,2.252
		c1.457,4.382,3.166,8.557,5.098,12.453c-5.494,2.11-10.985,4.222-16.479,6.332c1.931,3.61,3.861,7.221,5.791,10.83
		c-1.226,0.873-2.454,1.748-3.679,2.623c2.406,3.345,5.111,6.15,8.013,8.305c-5.605,2.892-11.209,5.78-16.814,8.672
		c3.686,4.23,7.457,8.277,11.303,12.132c-4.622,0.167-7.575,10.47-4.553,15.999c1.626,2.976,4.556,4.893,4.617,8.821
		c0.052,3.421-2.183,5.669-4.155,7.087c-5.173,3.718-10.561,6.682-16.078,8.85c-1.202-2.535-3.118-4.768-5.612-6.289
		c3.594-4.456,2.856-10.969-0.177-15.777c-3.031-4.809-7.926-8.295-12.696-11.657c5.555,1.189,9.812-5.789,7.879-10.793
		c-1.935-5.002-7.315-7.985-12.35-10.479c-5.034-2.493-10.478-5.262-12.767-10.132c6.757-3.379,13.514-6.761,20.271-10.142
		c2.14-1.071,4.57-2.558,4.617-4.822c0.035-1.64-1.233-3.021-2.425-4.226c-6.571-6.636-13.139-13.271-19.71-19.906
		c6.257,0.338,10.801-6.557,9.59-12.295s-6.305-10.068-11.646-13.131c-5.701-3.27-12.423-5.998-15.357-11.611
		c-2.932-5.61,2.225-14.465,8.466-12.211c-4.313-13.375-22.234-18.112-31.117-29.356c-1.03-1.306-1.963-3.03-1.183-4.479
		c0.669-1.24,2.307-1.713,3.307-2.739c1.749-1.799,1.082-4.613,0.313-6.931c-10.477-31.526-20.95-63.053-31.424-94.579
		c-5.404,12.882-8.671,26.544-9.651,40.348c-0.764,10.767-0.75,22.969-9.208,30.325c-4.136,3.6-9.802,5.455-13.679,9.296
		c-3.877,3.842-4.676,11.348,0.485,13.507c-4.982,2.957-5.015,10.914-0.059,13.909c-3.495-0.915-6.974,2.272-7.483,5.626
		c-0.507,3.351,1.034,6.646,2.541,9.727c-2.022,0.211-4.042,0.425-6.064,0.636v0.919c-6.532-3.536-12.958-7.563-19.243-12.083
		c-4.53-3.255-9.68-8.433-9.55-16.297c0.14-9.049,6.88-13.452,10.62-20.3c6.95-12.733,0.16-36.438-10.48-36.82
		c8.85-8.872,17.53-18.183,26.01-27.922c-12.9-6.651-25.79-13.303-38.69-19.954c6.67-4.963,12.9-11.418,18.44-19.115
		c-2.82-2.015-5.64-4.021-8.47-6.035c4.45-8.303,8.89-16.615,13.33-24.918c-12.64-4.859-25.28-9.72-37.92-14.58
		c4.44-8.965,8.38-18.564,11.73-28.658c-10.78-1.727-21.56-3.452-32.33-5.178c2.15-6.689,4.3-13.387,6.46-20.076
		c-8.46,0.383-16.93-5.14-14.69-18.088c2.16-12.464-0.39-22.716-4.5-36.289c-13.9,10.803-0.06,26.521-7.38,46.019
		c-8.99,23.947-19.16,46.794-30.39,68.25c3.45,2.883,6.91,5.765,10.36,8.657c-11.35,6.633-21.57,18.004-29.36,32.632
		c-17.25,5.971-33.93,16.064-49.3,29.815c8.48,6.185,16.96,12.37,25.44,18.555c-10.2,6.932-20.4,13.863-30.6,20.785
		c7.16,3.731,14.31,7.463,21.46,11.194c-14.78,8.284-29.2,18.2-43.11,29.665c13.36,9.954,26.73,19.908,40.09,29.862
		c-10.95,7.034-21.65,15.047-32.03,23.975c5.83,5.467,11.66,10.943,17.48,16.409c-6.06,2.501-7.54,14.824-7.84,24.722
		c-0.12,3.807-0.23,7.612-0.35,11.419c-17.26-9.936-34.51-19.871-51.77-29.815c-0.4-12.977-0.79-25.952-1.19-38.929
		c-0.56-18.247-3.28-40.973-14.46-45.581c10.74-10.084,21.49-20.169,32.23-30.253c-19.14-16.466-38.86-31.233-59.05-44.21
		c24.64-18.35,49.28-36.699,73.92-55.049c-25.65-21.14-52.23-39.424-79.5-54.695c13.19-6.875,26.38-13.76,39.58-20.636
		c-18.81-12.771-37.61-25.551-56.41-38.322c15.63-11.409,31.26-22.809,46.9-34.209c-28.34-25.365-59.1-43.967-90.91-54.975
		c-14.35-26.979-33.2-47.941-54.12-60.181c6.37-5.317,12.73-10.635,19.1-15.952c-20.71-39.563-39.46-81.674-56.04-125.837
		c-13.49-35.943-5.747-30.491-13.6-84.836c-7.58,25.02-12.27,43.92-8.3,66.897c4.12,23.881-11.49,34.059-27.08,33.35
		c3.97,12.343,7.94,24.675,11.91,37.018c-19.87,3.181-39.74,6.362-59.61,9.553c6.18,18.592,13.43,36.308,21.63,52.838
		c-23.31,8.956-46.61,17.912-69.92,26.867c8.19,15.318,16.38,30.636,24.57,45.954c-5.2,3.703-10.41,7.417-15.61,11.129
		c10.21,14.189,21.689,26.093,34,35.235c-23.78,12.268-47.561,24.525-71.34,36.793c15.64,17.948,31.64,35.123,47.96,51.477
		c-19.61,0.709-32.14,44.424-19.32,67.886c6.9,12.622,19.33,20.757,19.59,37.427c0.22,14.516-9.26,24.051-17.63,30.067
		c-21.95,15.774-44.81,28.351-68.22,37.549c-5.1-10.757-13.23-20.226-23.81-26.681c15.25-18.91,12.12-46.542-0.75-66.943
		c-12.86-20.402-33.63-35.198-53.87-49.462c23.57,5.047,41.63-24.563,33.43-45.795c-8.21-21.224-31.04-33.883-52.4-44.462
		c-21.36-10.578-44.46-22.323-54.17-42.987c28.67-14.338,57.34-28.687,86.01-43.033c9.08-4.544,19.39-10.85,19.59-20.458
		c0.15-6.96-5.23-12.818-10.29-17.931c-27.88-28.154-55.75-56.309-83.63-84.463c26.55,1.437,45.83-27.818,40.69-52.167
		c-5.14-24.348-26.75-42.717-49.41-55.712c-24.19-13.872-52.71-25.448-65.16-49.266c-12.44-23.807,9.44-61.374,35.92-51.812
		c-18.3-56.748-94.34-76.852-132.03-124.559c-4.37-5.542-8.33-12.855-5.02-19.004c2.84-5.261,9.79-7.267,14.03-11.623
		c7.42-7.631,4.59-19.572,1.33-29.404c-44.45-133.767-88.89-267.533-133.33-401.299c-22.93,54.658-36.79,112.627-40.95,171.193
		c-3.24,45.684-3.18,97.458-39.07,128.673c-17.55,15.271-41.59,23.145-58.04,39.442c-16.45,16.297-19.84,48.146,2.06,57.307
		c-21.14,12.547-21.28,46.309-0.25,59.015c-14.83-3.881-29.59,9.646-31.75,23.872c-2.15,14.217,4.39,28.201,10.78,41.271
		C17.15,1765.758,8.58,1766.663,0,1767.559z M1736.586,2727.87c2.62,1.385,5.241,2.769,7.862,4.153
		c-2.527,1.433-5.028,2.98-7.502,4.632C1738.201,2733.948,1737.913,2730.646,1736.586,2727.87z M1742.197,2757.751
		c-2.395-0.962-4.771-1.976-7.114-3.065c-3.111-1.446-6.641-3.744-6.557-7.238c0-0.003,0.001-0.005,0.001-0.008
		C1733.084,2750.877,1737.641,2754.313,1742.197,2757.751z M1748.45,2717.826c-4.208,2.896-8.415,5.791-12.623,8.687
		c-1.636-2.522-4.194-4.353-7.201-4.423c4.503-2.92,8.938-5.949,13.303-9.082C1744.103,2714.614,1746.276,2716.221,1748.45,2717.826
		z M2272.37,2787.314c0.018-0.037,0.033-0.076,0.052-0.113c0,0.028-0.001,0.057-0.002,0.085
		C2272.403,2787.295,2272.387,2787.305,2272.37,2787.314z M2276.296,2772.588c-1.448,0.943-2.869,1.992-4.259,3.135
		c-0.871-0.395-1.743-0.79-2.614-1.185c1.721-0.825,3.308-2.065,4.669-3.612C2274.827,2771.479,2275.562,2772.034,2276.296,2772.588
		z M2317.022,2786.845c-1.15,0.479-1.43,2.846-1.487,4.745c-0.041,1.352-0.081,2.703-0.122,4.054
		c-0.179,0.104-0.357,0.208-0.536,0.313c-1.085-0.962-2.171-1.925-3.257-2.887c-0.422-0.374-0.889-0.847-0.969-1.607
		c-0.087-0.831,0.331-1.558,0.713-2.135c1.066-1.606,2.133-3.212,3.2-4.818C2315.384,2785.287,2316.203,2786.066,2317.022,2786.845z
		 M2754.945,2785.138c-0.03-0.074-0.068-0.144-0.115-0.206c0.069,0.066,0.139,0.132,0.208,0.197
		C2755.007,2785.132,2754.976,2785.135,2754.945,2785.138z M2586.11,2775.426c0.024-0.052,0.045-0.105,0.071-0.156
		c-0.001,0.039-0.002,0.078-0.003,0.117C2586.155,2775.399,2586.133,2775.412,2586.11,2775.426z M2363.533,2792.828
		c-0.413,0.187-0.825,0.374-1.237,0.561c0.206-0.31,0.412-0.619,0.618-0.93C2363.113,2792.598,2363.318,2792.726,2363.533,2792.828z
		 M2359.272,2797.942c0.597-0.899,1.194-1.799,1.792-2.699c0.399,0.469,0.8,0.938,1.2,1.405c0.197,0.231,0.413,0.522,0.368,0.855
		c-0.041,0.305-0.282,0.494-0.5,0.645c-0.916,0.631-1.831,1.262-2.746,1.892c-0.206,0.142-0.446,0.38-0.374,0.659
		c0.038,0.146,0.152,0.238,0.26,0.317c0.509,0.377,1.019,0.755,1.528,1.132c-0.042,0.032-0.084,0.063-0.127,0.094
		c-0.338,0.002-0.676,0.002-1.014,0.004c-0.034-0.03-0.067-0.06-0.101-0.09c-0.475-0.421-1.001-0.953-1.091-1.81
		C2358.371,2799.411,2358.84,2798.593,2359.272,2797.942z M2591.5,2755.209c-1.987,1.295-3.938,2.734-5.847,4.304
		c-1.196-0.542-2.393-1.085-3.589-1.627c2.363-1.133,4.55-2.826,6.419-4.952C2589.489,2753.692,2590.495,2754.451,2591.5,2755.209z
		 M2647.408,2774.78c-1.578,0.659-1.962,3.907-2.04,6.515c-0.056,1.855-0.112,3.71-0.168,5.564c-0.246,0.144-0.491,0.287-0.736,0.43
		c-1.49-1.321-2.98-2.643-4.471-3.963c-0.579-0.514-1.221-1.162-1.33-2.207c-0.119-1.141,0.454-2.138,0.98-2.931
		c1.464-2.205,2.928-4.409,4.392-6.614C2645.16,2772.643,2646.284,2773.711,2647.408,2774.78z M2701.608,2775.28
		c0.792-0.488,1.555-1.093,2.283-1.792c0.23,0.219,0.46,0.438,0.69,0.656c-0.592,0.247-0.778,1.371-0.833,2.385
		C2703.035,2776.113,2702.321,2775.697,2701.608,2775.28z M2789.509,2780.241c-0.556,0.425-1.112,0.849-1.668,1.273
		c-1.523-0.705-3.046-1.411-4.568-2.117c0.728-0.282,1.456-0.563,2.184-0.846C2786.818,2779.042,2788.173,2779.59,2789.509,2780.241
		z M4676.717,2687.435c1.758-1.067,3.516-2.135,5.273-3.202c-1.373,1.201-2.746,2.402-4.118,3.603
		C4677.5,2687.684,4677.121,2687.543,4676.717,2687.435z M4466.261,2640.457c0.153,6.387-6.3,10.587-11.986,13.231
		c-4.302,2.001-8.659,3.878-13.059,5.644c8.348-6.297,16.696-12.594,25.044-18.891
		C4466.26,2640.447,4466.261,2640.451,4466.261,2640.457z M4450.871,2620.729c-4.523-3.02-9.096-5.849-13.715-8.468
		c4.791-2.531,9.581-5.062,14.372-7.593C4449.102,2609.744,4448.575,2615.778,4450.871,2620.729z M3803.336,2686.131
		c0.518-0.145,1.035-0.283,1.553-0.424c0.126,0.215,0.251,0.43,0.377,0.646C3804.621,2686.281,3803.981,2686.201,3803.336,2686.131z
		 M3499.498,2633.794c0.973,0.82,1.973,1.562,2.998,2.194c-1.478,0.862-2.955,1.725-4.433,2.586
		c-0.881-0.697-1.768-1.375-2.662-2.03C3496.768,2635.628,3498.133,2634.711,3499.498,2633.794z M3426.143,2669.861
		c-0.161,0.975-0.641,1.685-1.195,2.254c-0.349-4.954-1.354-10.099-4.129-11.295c0.292-0.287,0.585-0.575,0.877-0.862
		c1.103,1.888,2.204,3.776,3.306,5.665C3425.681,2666.789,3426.41,2668.248,3426.143,2669.861z M2901.697,2758.761
		c-2.083,0.75-4.166,1.501-6.249,2.251c-1.422-0.695-2.844-1.392-4.266-2.087c1.612-0.659,3.225-1.319,4.837-1.979
		c-0.046,0.021-0.093,0.043-0.14,0.063C2897.819,2757.594,2899.758,2758.178,2901.697,2758.761z M2952.087,2741.463
		c-1.296,0.954-2.592,1.908-3.888,2.863c-3.202-0.801-6.333-2.04-9.306-3.722c-0.908-0.513-1.938-1.328-1.913-2.567
		c0.014-0.688,0.337-1.204,0.75-1.677C2942.584,2737.548,2947.385,2739.252,2952.087,2741.463z M3047.668,2715.52
		c0.365-0.531,0.73-1.063,1.097-1.594c-0.195,0.982-0.276,2.089-0.308,3.09c-0.049,1.646-0.099,3.294-0.148,4.941
		c-0.296,0.172-0.592,0.345-0.888,0.518c-0.62-0.651-1.155-1.458-1.274-2.564C3045.961,2718.201,3046.851,2716.707,3047.668,2715.52
		z M3112.849,2725.735c-2.753,2.102-5.507,4.204-8.261,6.306c1.069,1.035,2.295,1.655,3.542,1.791
		c-0.278,0.217-0.556,0.433-0.835,0.648c-1.724-1.528-3.447-3.057-5.171-4.584c-0.579-0.514-1.221-1.162-1.33-2.207
		c-0.119-1.141,0.454-2.137,0.979-2.93c0.57-0.858,1.141-1.717,1.71-2.575C3106.647,2723.058,3109.777,2724.238,3112.849,2725.735z
		 M4466.079,2594.102c-5.499,0.128-10.173,3.475-13.165,8.085c-7.691-5.293-15.383-10.586-23.075-15.879
		c3.974-2.936,7.948-5.872,11.922-8.808C4449.738,2583.227,4457.848,2588.764,4466.079,2594.102z M4658.476,2654.66
		c7.761-3.74,15.522-7.48,23.284-11.221c2.873,4.273,5.748,8.549,8.62,12.821c2.28,3.386,4.761,7.649,4.24,12.519
		c-0.106,1.014-0.345,1.929-0.659,2.78C4682.414,2665.334,4670.566,2659.691,4658.476,2654.66z"/>
</g>
</svg>
