<?xml version="1.0" encoding="UTF-8" standalone="no"?>
<!-- Generator: Adobe Illustrator 24.0.1, SVG Export Plug-In . SVG Version: 6.00 Build 0)  -->

<svg
   version="1.1"
   id="Layer_1"
   x="0px"
   y="0px"
   viewBox="0 0 120 85"
   enable-background="new 0 0 120 85"
   xml:space="preserve"
   sodipodi:docname="06.svg"
   inkscape:version="1.2 (dc2aedaf03, 2022-05-15)"
   xmlns:inkscape="http://www.inkscape.org/namespaces/inkscape"
   xmlns:sodipodi="http://sodipodi.sourceforge.net/DTD/sodipodi-0.dtd"
   xmlns="http://www.w3.org/2000/svg"
   xmlns:svg="http://www.w3.org/2000/svg"><defs
   id="defs17345" /><sodipodi:namedview
   id="namedview17343"
   pagecolor="#ffffff"
   bordercolor="#000000"
   borderopacity="0.25"
   inkscape:showpageshadow="2"
   inkscape:pageopacity="0.0"
   inkscape:pagecheckerboard="0"
   inkscape:deskcolor="#d1d1d1"
   showgrid="false"
   inkscape:zoom="2.7764706"
   inkscape:cx="33.675847"
   inkscape:cy="42.5"
   inkscape:window-width="1920"
   inkscape:window-height="986"
   inkscape:window-x="-11"
   inkscape:window-y="-11"
   inkscape:window-maximized="1"
   inkscape:current-layer="g17340" />
<g
   id="g17340">
	<linearGradient
   id="SVGID_1_"
   gradientUnits="userSpaceOnUse"
   x1="60"
   y1="48.9098"
   x2="60"
   y2="7.6243">
		<stop
   offset="0"
   style="stop-color:#FF6460"
   id="stop17272" />
		<stop
   offset="0.5491"
   style="stop-color:#FD5646"
   id="stop17274" />
		<stop
   offset="1"
   style="stop-color:#FF9142"
   id="stop17276" />
	</linearGradient>
	<rect
   fill-rule="evenodd"
   clip-rule="evenodd"
   fill="url(#SVGID_1_)"
   width="120"
   height="60.17"
   id="rect17279" />
	<linearGradient
   id="SVGID_2_"
   gradientUnits="userSpaceOnUse"
   x1="119.9258"
   y1="45.8721"
   x2="119.9258"
   y2="32.3287">
		<stop
   offset="0"
   style="stop-color:#E97980"
   id="stop17281" />
		<stop
   offset="1"
   style="stop-color:#D95153"
   id="stop17283" />
	</linearGradient>
	<polygon
   fill-rule="evenodd"
   clip-rule="evenodd"
   fill="url(#SVGID_2_)"
   points="120,27.91 119.85,28.01 120,28.58  "
   id="polygon17286" />
	<linearGradient
   id="SVGID_3_"
   gradientUnits="userSpaceOnUse"
   x1="60"
   y1="45.8648"
   x2="60"
   y2="32.3271">
		<stop
   offset="0"
   style="stop-color:#E97980"
   id="stop17288" />
		<stop
   offset="1"
   style="stop-color:#D95153"
   id="stop17290" />
	</linearGradient>
	<polygon
   fill-rule="evenodd"
   clip-rule="evenodd"
   fill="url(#SVGID_3_)"
   points="120,28.97 119.75,29.51 119.06,30.07    119.22,30.93 118.83,31.6 118.19,32.17 117.8,32.84 116.7,33.09 116.21,33.68 115.7,34.13 115.11,34.52 114.38,34.43 113.57,34.23    112.51,34.19 112.09,33.46 111.34,33.02 110.81,32.42 110.48,31.67 109.65,31.26 108.59,31.4 107.75,31.48 106.87,31.8    105.89,31.91 105.46,32.71 104.28,32.67 103.61,33.2 103.57,34.19 102.54,34.53 102.3,35.41 101.12,35.54 100.59,36.4 99.44,36.44    98.54,35.89 97.34,35.99 96.61,35.51 96,34.94 95.15,34.69 94.34,34.77 93.35,34.55 92.63,34.96 92.05,35.49 91.13,35.69    90.61,36.26 89.85,36.65 89.41,37.18 89.46,38.05 88.63,38.38 87.66,38.46 86.82,38.08 85.98,37.85 85.01,37.78 84.4,37.18    83.38,37.21 82.74,36.67 81.84,36.52 81.16,36.03 80.27,35.87 79.69,35.21 78.67,35.26 77.92,34.89 77.25,34.37 76.43,34.06    75.52,33.85 74.86,33.31 73.86,33.2 73.27,32.58 72.26,32.52 71.71,31.67 70.54,32.01 69.69,31.67 68.77,31.51 67.96,31.94    67.04,31.96 66.26,32.33 65.32,32.4 64.48,32.66 63.79,33.16 63.1,33.68 62.25,33.94 61.37,34.02 60.49,34.08 59.78,34.6    58.85,34.34 58,34.68 57.21,34.26 56.45,34.01 55.58,33.85 54.76,33.54 53.78,33.67 52.93,33.39 52.1,33.55 51.22,33.68    50.76,34.38 49.98,34.66 49.1,34.86 48.45,35.29 47.58,35.34 46.58,35.37 45.93,34.7 44.87,34.78 44.05,34.59 43.16,34.47    42.26,34.41 41.45,34.07 40.68,33.81 39.79,33.59 39.59,32.79 38.89,32.36 38.01,32.14 37.24,32.16 36.4,32.15 35.38,32.15    35.01,33.07 33.73,32.87 33.17,33.72 32.17,33.94 31.19,34.19 30.26,34.32 29.38,33.86 28.52,33.68 27.63,33.61 26.62,33.79    25.69,33.71 24.95,33.18 23.96,33.21 23.36,32.43 22.49,32.2 21.69,31.83 20.57,32.19 19.76,31.85 18.92,31.5 17.97,31.76    17.09,31.13 16.22,31.79 15.3,31.45 14.44,31.74 13.57,31.89 12.64,31.83 11.86,32.28 10.91,32.22 10.04,32.39 9.14,32.5    8.42,33.02 7.53,33.17 6.79,33.64 5.9,33.79 5.03,33.99 4.2,34.26 3.31,34.39 2.35,34.37 1.57,34.77 0.63,34.77 0,35.23 0,59.61    0.44,59.54 1.32,59.91 2.22,59.98 3.13,60.05 4.01,60.31 4.94,60.29 5.86,60.36 6.74,60.68 7.73,60.31 8.65,60.33 9.56,60.45    10.51,60.75 11.47,60.85 12.39,61.22 13.42,61 14.43,60.94 15.39,61.08 16.34,61.29 17.32,61.32 18.14,61.74 19.07,61.63    19.87,62.25 20.86,61.76 21.7,62.21 22.63,62.07 23.46,62.63 24.37,62.63 25.33,62.18 26.19,62.58 27.13,62.26 27.99,62.64    28.87,62.83 29.8,62.65 30.69,62.75 31.54,63.13 32.53,63 33.49,63.04 34.43,63.33 35.41,63.13 36.38,63.08 37.31,63.47    38.3,63.15 39.24,63.4 40.18,63.67 41.11,63.47 42.01,63.53 42.86,63.95 43.78,63.87 44.7,63.83 45.57,64.12 46.47,64.2    47.38,64.27 48.3,64.17 49.2,64.3 50.12,64.38 51.04,64.25 51.96,63.88 52.88,63.89 53.8,63.89 54.72,63.94 55.64,63.93    56.56,63.99 57.48,64.41 58.4,64.32 59.32,64.43 60.25,63.85 61.17,64.08 62.09,64.38 63.01,64.28 63.93,64.13 64.85,64.17    65.77,63.83 66.7,64.26 67.62,64.16 68.54,64.17 69.46,64.04 70.37,63.79 71.3,64.19 72.23,64.33 73.14,63.82 74.06,64    74.99,64.32 75.91,64.24 76.82,63.68 77.73,63.74 78.64,63.91 79.56,64.12 80.45,63.63 81.37,63.96 82.28,63.97 83.19,63.89    84.09,63.77 84.99,63.63 85.93,64.06 86.83,63.93 87.73,63.74 88.65,63.87 89.52,63.28 90.46,63.81 91.36,63.51 92.28,63.71    93.17,63.47 94.06,63.07 94.98,63.24 95.89,63.27 96.82,63.53 97.7,63.15 98.61,63.18 99.54,63.38 100.45,63.45 101.34,63.13    102.23,62.75 103.14,62.8 104.05,62.75 104.95,62.65 105.86,62.67 106.8,63.15 107.71,62.86 108.65,63.13 109.56,62.82    110.48,62.77 111.42,62.92 112.35,63.02 113.25,62.62 114.18,62.62 115.12,62.77 116.02,62.41 116.97,62.84 117.88,62.47    118.79,62.14 119.73,62.52 120,62.48  "
   id="polygon17293" />
	<linearGradient
   id="SVGID_4_"
   gradientUnits="userSpaceOnUse"
   x1="60"
   y1="52.7228"
   x2="60"
   y2="38.7672">
		<stop
   offset="0"
   style="stop-color:#C67085"
   id="stop17295" />
		<stop
   offset="1"
   style="stop-color:#AE4553"
   id="stop17297" />
	</linearGradient>
	<polygon
   fill-rule="evenodd"
   clip-rule="evenodd"
   fill="url(#SVGID_4_)"
   points="120,38.5 119.87,38.53 119.13,38.24 118.4,38.04    117.54,38.17 116.73,38.19 115.99,38.01 115.26,37.7 114.45,37.7 113.61,37.77 112.88,38.12 112.03,37.98 111.23,38.05    110.58,38.4 109.64,38.14 108.91,38.34 108.16,38.57 107.34,38.24 106.53,38.55 105.73,38.55 105.07,38.12 104.2,38.33    103.43,38.05 102.64,38.24 101.96,38.47 101.32,38.69 100.32,38.66 99.86,39.12 98.99,39.22 98.44,39.6 97.76,39.9 96.81,39.9    95.96,39.69 95.11,39.78 94.19,39.8 93.4,39.62 92.95,39.12 92.27,38.86 91.38,38.77 90.68,38.52 89.79,38.4 89.13,38.11    88.44,37.79 87.51,37.83 86.64,37.71 85.67,37.77 85.12,38.2 84.49,38.51 83.71,38.74 82.92,38.96 82.29,39.24 81.63,39.53    80.78,39.57 79.81,39.65 79.21,39.25 78.61,38.93 77.69,38.83 77.15,38.47 76.25,38.44 75.62,37.98 74.72,38.13 74.11,38.48    73.2,38.56 73.19,39.08 72.43,39.33 72.01,39.7 71.8,40.11 71.76,40.57 70.69,40.76 70.86,41.29 70.42,41.66 69.5,41.79    68.91,42.05 68.18,42.18 67.38,42.51 66.65,42.16 65.78,42.19 65.32,41.7 64.59,41.55 63.86,41.38 62.89,41.42 62.5,40.96    61.61,40.91 61.04,40.6 60.49,40.28 59.87,40.02 58.96,39.97 58.19,39.82 57.75,39.41 57.01,39.23 56.33,39.01 55.44,39.02    54.82,38.67 53.98,38.66 53.28,38.39 52.5,38.26 51.73,38.1 50.89,38.1 50.02,38.28 49.25,38.08 48.4,38.27 47.65,37.93    46.81,38.07 46.03,37.86 45.2,38.02 44.38,38.15 43.6,37.72 42.77,37.96 41.97,37.7 41.15,38.02 40.34,38.04 39.54,37.71    38.72,38.02 37.92,37.7 37.1,37.89 36.28,38 35.5,37.71 34.69,37.68 33.83,38.01 33.03,37.92 32.21,37.9 31.39,37.86 30.73,37.53    30.16,37.17 29.17,37.38 28.5,37.17 27.84,36.91 27.03,36.97 26.2,36.72 25.38,36.98 24.56,37.05 23.82,37.28 22.99,37.34    22.15,37.4 21.28,37.4 20.58,37.75 19.61,37.45 18.85,37.82 18.05,37.63 17.28,37.5 16.36,37.74 15.75,37.29 14.92,37.29    14.08,37.3 13.39,37 12.57,37.02 11.77,37.24 10.94,37.1 10.1,37.08 9.24,37.04 8.53,37.46 7.66,37.38 6.89,37.6 6.02,37.54    5.14,37.43 4.36,37.67 3.54,37.79 2.69,37.55 1.85,37.65 1.05,37.5 0.28,37.31 0,37.37 0,64.73 0.53,64.54 1.26,64.92 2.04,65.12    2.94,64.82 3.72,65.06 4.58,64.92 5.34,65.21 6.16,65.29 6.99,65.28 7.79,65.42 8.64,65.27 9.43,65.51 10.28,65.38 11.08,65.54    11.95,65.25 12.75,65.44 13.59,65.35 14.39,65.49 15.22,65.49 16.06,65.33 16.86,65.57 17.67,65.67 18.49,65.81 19.32,65.75    20.13,65.86 20.99,65.53 21.8,65.65 22.61,65.75 23.46,65.52 24.25,65.89 25.07,65.92 25.92,65.63 26.75,65.62 27.55,65.81    28.35,66.03 29.21,65.69 30.01,65.91 30.85,65.75 31.66,65.8 32.48,65.9 33.31,65.72 34.13,65.74 34.91,66.19 35.74,66.11    36.57,66 37.39,65.95 38.22,65.83 39.02,66.02 39.83,66.3 40.66,66.13 41.48,66.08 42.29,66.21 43.11,66.18 43.95,65.92    44.76,66.08 45.56,66.37 46.39,66.17 47.2,66.37 48.03,66.16 48.84,66.31 49.66,66.4 50.49,66.21 51.3,66.38 52.13,66.11    52.94,66.38 53.76,66.29 54.58,66.14 55.41,66.04 56.22,66.35 57.04,66.08 57.86,66.31 58.68,66.33 59.49,66.5 60.32,66.21    61.14,66.14 61.95,66.35 62.77,66.44 63.59,66.47 64.41,66.37 65.23,66.23 66.05,66.43 66.87,66.09 67.69,66.52 68.51,66.34    69.33,66.15 70.15,66.37 70.96,66.21 71.78,66.38 72.6,66.16 73.42,66.23 74.24,66.31 75.06,66.43 75.88,66.12 76.7,66.26    77.52,66.37 78.34,66.41 79.16,66.26 79.98,66.5 80.8,66.48 81.61,66.24 82.43,66.15 83.25,66.1 84.07,66.16 84.89,66.06    85.71,66.32 86.53,66.2 87.35,66.12 88.17,66.41 88.99,66.39 89.8,66.08 90.63,66.49 91.45,66.29 92.26,66.06 93.08,66.3    93.9,66.3 94.72,66.16 95.54,66.02 96.36,66.06 97.18,66.4 98,66.18 98.82,66.23 99.64,66.05 100.46,66.36 101.28,66.19    102.1,66.43 102.91,66.02 103.73,66.08 104.55,66.04 105.37,66.08 106.19,66.32 107.01,66.03 107.83,66.33 108.65,66.18    109.47,66.07 110.29,66.3 111.11,66.37 111.93,66.26 112.75,66.29 113.56,66.05 114.38,66.17 115.2,66.25 116.02,66.11    116.84,66.34 117.66,66.29 118.48,66.39 119.3,66.01 120,66.14  "
   id="polygon17300" />
	
		<linearGradient
   id="SVGID_5_"
   gradientUnits="userSpaceOnUse"
   x1="109.6951"
   y1="78.8853"
   x2="109.6951"
   y2="33.9678"
   gradientTransform="matrix(1.0881 0.0732 -0.0671 0.9977 -55.2163 -8.82)">
		<stop
   offset="0"
   style="stop-color:#573253"
   id="stop17302" />
		<stop
   offset="1"
   style="stop-color:#5A303E"
   id="stop17304" />
	</linearGradient>
	<polygon
   fill-rule="evenodd"
   clip-rule="evenodd"
   fill="url(#SVGID_5_)"
   points="120,41.33 119.24,41.26 118.41,41.19 118,41.42    117.27,41.32 116.75,41.82 116.09,41.65 115.22,41.75 114.35,41.43 113.5,41.61 112.66,41.83 111.8,41.96 111.06,41.52    110.35,41.09 109.43,40.98 108.76,41.64 108.17,42.34 107.54,42.14 106.95,41.92 106.46,41.18 105.62,40.84 104.94,40.3    104.36,39.66 104,38.98 103.29,38.64 102.63,38.42 101.79,38.28 100.96,38.49 100.38,38.19 99.75,38.32 98.96,38.29 98.29,38.65    97.75,39.2 97.07,39.52 96.28,39.65 95.5,39.64 94.81,39.32 94.05,39.6 93.24,39.78 92.68,40.18 92.04,40.47 91.32,40.61    90.6,40.52 89.82,40.47 89.07,40.35 88.37,39.85 87.55,39.88 86.71,40.33 85.75,40.09 85.02,39.53 84.69,38.74 84.24,38.05    83.34,37.73 82.74,37.19 82.53,36.74 81.95,36.74 81.39,36.19 81.43,35.44 81.2,34.78 80.69,34.37 80.3,34.68 79.72,34.81    78.84,34.89 77.94,34.75 77.04,34.99 76.45,35.64 75.83,36.14 75.68,36.98 75.01,37.44 74.19,37.68 73.59,38.02 73.03,38.46    72.41,38.8 71.4,39.37 70.56,39.37 69.61,39.36 69.03,40.06 68.33,40.53 67.57,40.84 67.15,41.53 66.86,42.06 66.41,42.54    65.71,42.7 65.05,42.68 64.41,42.98 64.1,43.57 63.33,43.69 62.98,44.08 62.38,44.45 61.74,44.79 61.12,45.13 60.53,45.46    59.94,45.98 59.22,45.53 58.57,45.2 57.69,45.02 57.13,44.48 56.41,44.41 55.69,44.53 54.94,44.45 54.4,43.96 53.77,43.51    53.39,42.91 52.52,43.08 51.84,42.88 50.97,43.17 50.25,43.83 49.44,43.68 48.89,43.47 48.42,42.99 47.69,42.59 47.2,41.93    46.82,41.16 46.34,40.45 45.84,39.86 44.98,39.42 44.74,38.6 43.87,38.34 43.36,37.76 42.57,37.72 42.04,37.16 41.52,36.63    40.85,36.03 39.83,35.97 39.04,35.65 38.96,34.8 38.14,34.6 37.37,34.63 36.56,34.72 35.69,34.4 34.94,34.28 33.83,34.42    33.18,34.46 32.39,34.48 31.79,34.84 30.99,35.04 30.18,34.78 29.08,35.13 28.02,35.1 27.25,34.95 26.68,35.5 26.07,35.91    25.44,36.32 24.71,36.69 24.26,37.29 23.94,37.97 23.32,38.43 23.08,39.17 22.41,39.57 21.92,40.25 21.19,40.73 20.86,41.53    19.97,41.84 19.47,42.27 18.96,42.7 18.32,42.96 17.83,43.46 17.05,43.52 16.26,43.54 15.65,43.05 14.64,42.87 13.67,42.36    12.91,42.3 12.15,42.79 11.46,43.19 10.69,43.47 9.91,43.73 9.43,44.45 8.59,44.63 8.01,45.17 7.24,45.27 6.78,45.76 6.12,45.81    5.27,45.79 4.34,46 3.62,46.29 2.89,45.95 2.18,45.81 1.43,46 0.69,45.91 0,45.73 0,73.39 0.33,73.49 1.12,73.55 1.9,73.72    2.72,73.54 3.48,73.8 4.28,73.78 5.1,73.64 5.87,73.85 6.66,73.94 7.47,73.79 8.24,74.07 9.02,74.21 9.83,74.05 10.59,74.46    11.41,74.24 12.2,74.28 12.97,74.59 13.75,74.78 14.55,74.48 15.3,74.87 16.1,74.66 16.87,74.89 17.65,74.84 18.43,74.86    19.22,74.8 19.98,75.01 20.77,75.03 21.53,75.28 22.32,75.22 23.09,75.26 23.86,75.56 24.65,75.34 25.42,75.66 26.21,75.5    26.98,75.67 27.77,75.42 28.54,75.58 29.32,75.64 30.1,75.81 30.88,75.77 31.66,75.59 32.44,75.58 33.22,75.5 34,75.65    34.78,75.93 35.56,75.75 36.34,75.62 37.12,75.91 37.9,75.86 38.68,75.74 39.45,75.61 40.24,75.83 41.02,75.97 41.8,75.74    42.59,75.54 43.38,75.9 44.17,76 44.95,75.69 45.74,75.57 46.53,75.61 47.32,75.79 48.1,75.69 48.89,75.69 49.69,75.92    50.46,75.46 51.26,75.83 52.05,75.87 52.83,75.69 53.62,75.55 54.41,75.83 55.19,75.55 55.98,75.74 56.77,75.48 57.56,75.76    58.35,75.85 59.13,75.54 59.92,75.76 60.71,75.57 61.5,75.63 62.28,75.42 63.08,75.75 63.85,75.34 64.64,75.31 65.43,75.3    66.23,75.78 67.01,75.47 67.8,75.49 68.59,75.74 69.38,75.66 70.16,75.56 70.95,75.72 71.73,75.37 72.52,75.25 73.31,75.46    74.1,75.57 74.89,75.45 75.68,75.58 76.46,75.59 77.25,75.39 78.04,75.26 78.83,75.74 79.61,75.41 80.4,75.31 81.19,75.31    81.98,75.65 82.77,75.33 83.55,75.8 84.34,75.35 85.14,75.73 85.93,75.43 86.73,75.55 87.52,75.47 88.32,75.66 89.11,75.54    89.91,75.84 90.7,75.83 91.5,75.79 92.29,75.45 93.09,75.74 93.88,75.51 94.67,75.44 95.47,75.43 96.27,75.76 97.06,75.58    97.85,75.4 98.64,75.41 99.44,75.65 100.24,75.72 101.03,75.61 101.83,75.72 102.62,75.3 103.42,75.46 104.21,75.31 105,75.48    105.8,75.75 106.59,75.27 107.39,75.52 108.19,75.71 108.98,75.6 109.78,75.64 110.57,75.78 111.37,75.63 112.16,75.74    112.95,75.8 113.75,75.36 114.54,75.79 115.34,75.76 116.13,75.85 116.93,75.52 117.73,75.51 118.52,75.69 119.31,75.83 120,75.9     "
   id="polygon17307" />
	<polygon
   fill-rule="evenodd"
   clip-rule="evenodd"
   fill="#180C1A"
   points="120,85 120,47.69 119.74,47.7 119.03,48 118.29,48.04    117.56,48.1 116.84,48.25 116.16,48.55 115.47,48.72 114.9,49.14 114.35,49.58 113.71,49.9 113.23,50.42 112.61,50.76    111.92,51.01 111.28,51.39 110.58,51.68 109.84,51.63 109.09,51.51 108.29,51.66 107.74,52.33 107.04,52.69 106.25,52.88    105.5,53.13 104.88,53.2 104.28,53.28 103.64,53.09 103.1,53.44 102.52,53.61 101.76,53.9 100.91,53.71 100.21,54.23 99.47,54.44    98.79,54.75 98.09,55.11 97.25,55.01 96.44,55.34 95.56,54.99 94.95,55.39 94.42,55.83 93.93,56.29 93.33,56.6 92.68,56.78    91.99,56.85 91.32,56.46 90.58,56.47 90.06,56.64 89.49,56.54 88.76,56.5 88.04,56.31 87.29,56.21 86.63,55.71 85.9,55.79    85.23,56.07 84.6,56.39 83.8,56.18 83.29,56.84 82.53,56.78 81.9,57.12 81.18,57.12 80.49,57.03 79.86,57.38 79.24,57.28    78.44,57.52 77.65,57.86 76.94,58.06 76.2,58.09 75.5,57.81 74.71,57.99 73.92,57.94 73.21,57.52 72.42,57.63 71.96,58.07    71.34,57.87 70.77,57.54 69.98,57.35 69.62,56.64 68.98,56.37 68.31,56.19 67.64,55.97 67.04,55.59 66.58,55.09 66.03,54.69    65.56,54.22 65.27,53.5 64.59,53.29 63.93,53.13 63.21,53.06 62.66,52.59 62.12,52.14 61.53,51.79 60.84,51.57 60.38,51.02    59.7,50.8 59.12,50.42 58.53,50.04 57.81,50.03 57.2,49.68 56.78,49.05 56.01,48.93 55.45,48.51 54.76,48.17 53.94,48.24    53.25,47.86 52.55,47.52 52.15,48.25 51.5,48.51 50.89,48.78 50.25,48.98 49.68,48.66 49.01,48.51 48.45,48.17 47.95,47.74    47.28,47.31 46.54,47.15 45.68,47.38 45,47.15 44.39,46.73 43.78,46.3 43.05,46.18 42.54,45.7 41.81,45.72 41.19,45.52    40.55,45.52 39.84,45.39 39.22,45.7 38.55,45.76 37.93,45.51 37.31,45.34 36.71,45.03 36.11,44.64 35.7,43.97 34.98,44.22    34.29,44.33 33.67,44.74 32.91,44.71 32.32,45.3 31.52,45 30.87,45.52 30.13,45.47 29.4,45.41 28.7,45.16 28,45.2 27.37,45.52    26.73,45.74 26.33,46.37 25.62,46.48 24.97,46.59 24.35,46.99 23.65,47.23 22.93,47.26 22.21,47.38 21.45,47.33 20.72,47.19    19.98,47.16 19.25,46.78 18.57,46.81 17.9,47.09 17.22,46.77 16.54,46.97 15.82,46.97 15.14,46.67 14.41,46.55 13.67,46.46    12.92,46.48 12.18,46.49 11.43,46.42 10.68,46.55 9.94,46.21 9.24,46.15 8.54,46.17 7.88,46.36 7.21,46.6 6.54,46.35 5.86,46.32    5.16,46.28 4.57,45.75 3.81,45.76 3.11,45.49 2.4,45.19 1.89,44.55 1.21,44.17 0.41,44.14 0,44.19 0,85  "
   id="polygon17309" />
	<path
   fill-rule="evenodd"
   clip-rule="evenodd"
   fill="#EF4136"
   d="M38.32,20.31c0,3.89-3.14,7.05-7.02,7.05   c-3.87,0-7.02-3.15-7.02-7.05s3.14-7.05,7.02-7.05C35.18,13.26,38.32,16.42,38.32,20.31z"
   id="path17311" />
	<g
   id="g17317">
		<g
   id="g17315">
			<path
   fill-rule="evenodd"
   clip-rule="evenodd"
   fill="#180C1A"
   d="M52.69,42.62c0.02,0,0.01,0.02,0.02,0.03     c0,0.01,0.01,0.02,0.02,0.03c0.02,0.01,0.04,0,0.06,0c0.03,0,0.07,0.02,0.09,0.04c0.03,0.01,0.06,0.03,0.09,0.04     c0.01,0,0.01,0,0.02,0.01c0,0,0.01,0.01,0.01,0.01c0.03,0.01,0.06,0.02,0.08,0.03c0.06,0.01,0.12,0.02,0.18,0.03     c0.03,0,0.06,0.01,0.09,0.02c0.01,0,0.02,0.01,0.04,0.01c0.01,0,0.02,0,0.02,0c0,0,0.01,0.01,0.01,0.01c0,0,0.01,0,0.01,0     c0.02,0.01,0.03,0.03,0.04,0.04c0.02,0,0.05,0.01,0.07,0.01c0.03,0,0.07-0.02,0.09-0.02c0.02-0.06,0.06-0.1,0.1-0.14     c-0.01-0.02-0.02-0.04-0.03-0.06c-0.01,0-0.04,0.02-0.05,0c-0.01,0-0.01-0.01-0.01-0.01c0-0.01-0.01-0.05,0-0.07     c0-0.01,0-0.01,0.01-0.02c0.01-0.02,0.02-0.04,0.04-0.04c-0.01-0.1,0-0.19,0.04-0.26c0.01-0.02,0.03-0.05,0.05-0.07     c0.02-0.02,0.04-0.05,0.05-0.06c0,0,0.01,0,0.01,0c0.01,0,0.02-0.01,0.02-0.02c0.03-0.02,0.08-0.03,0.13-0.03     c0.04,0,0.09,0.02,0.12,0.04c0,0,0.01,0.01,0.01,0.01c0.01,0,0.01,0.01,0.02,0.01c0.01,0.01,0.02,0.02,0.03,0.03     c0.02,0.03,0.05,0.06,0.06,0.1c0.03,0.06,0.04,0.14,0.04,0.23c0,0.01,0.02,0,0.02,0.01c0.03,0.02,0.04,0.09,0.02,0.13     c-0.01,0.01-0.04,0.01-0.05,0c-0.02,0.02-0.02,0.04-0.03,0.06c0.03,0.02,0.05,0.04,0.08,0.07c0.01,0.01,0,0.02,0,0.03     c0.02,0,0.04,0,0.05,0.01c0.01,0,0.03,0.01,0.04,0.01c0.04,0.01,0.07,0,0.11,0.01c0.01,0,0.01-0.02,0.03-0.01     c0.01-0.01,0.02-0.01,0.03-0.02c0.04-0.01,0.09-0.02,0.13-0.03c0.05-0.01,0.09-0.01,0.14-0.01c0.07-0.01,0.12-0.05,0.18-0.08     c0.03-0.01,0.06-0.03,0.08-0.04c0.04-0.02,0.07-0.05,0.14-0.04c0.03-0.02,0.02-0.06,0.05-0.08c0.05,0,0.08,0.03,0.12,0.02     c0.03-0.01,0.05-0.03,0.07-0.06c0.01-0.01,0.03-0.03,0.04-0.04c0,0,0.01,0,0.01-0.01c0.01,0,0.01-0.01,0.02-0.01     c0.02-0.01,0.04-0.02,0.07-0.02c0.02,0,0.04,0.01,0.06,0.01c0.01,0,0.04-0.02,0.05-0.02c0.01,0,0.02-0.01,0.03-0.01     c0.04-0.02,0.09-0.04,0.15-0.05c0.02,0,0.02,0.03,0.03,0.03c0.04-0.01,0.07-0.03,0.1-0.04c0.03-0.01,0.06-0.03,0.1-0.04     c0.01,0,0.02-0.01,0.03-0.01c0,0,0.01-0.01,0.01-0.01c0.01,0,0.01,0,0.02,0c0.01,0,0.02-0.01,0.03-0.02     c0.04-0.02,0.07-0.04,0.11-0.05c0.01-0.01,0.02-0.01,0.03-0.02c0,0,0,0,0.01-0.01c0.01,0,0.02-0.01,0.02-0.02     c0-0.01,0.02-0.02,0.02-0.03c0.01-0.01,0-0.03,0.01-0.04c0,0,0.01-0.01,0.01-0.01c0-0.01,0-0.01,0.01-0.02     c0,0,0.01-0.01,0.01-0.01c0,0,0-0.01,0.01-0.01c0,0,0.01,0,0.01,0c0.01-0.01,0.03-0.02,0.06-0.03c0.02-0.01,0.03-0.03,0.06-0.04     c0.03-0.01,0.08-0.02,0.12-0.01c0.01,0.03,0.01,0.04-0.01,0.06c-0.02,0.01-0.05,0.02-0.08,0.03c-0.01,0.02,0.02,0.02,0.03,0.03     c0.02,0,0.03-0.01,0.05-0.02c0.01,0,0.02,0,0.04,0c0.02,0,0.03-0.01,0.05-0.01c0.01,0,0.02-0.02,0.03-0.02     c0.01-0.01,0.02-0.01,0.04-0.02c0.01,0,0.01-0.01,0.02-0.02c0.02-0.01,0.04-0.03,0.08-0.02c0.01,0,0.02,0.01,0.03,0.01     c0,0.01-0.01,0.02-0.02,0.02c-0.01,0.01-0.02,0.01-0.03,0.02c-0.01,0.02-0.03,0.02-0.05,0.04c0.03-0.01,0.06-0.03,0.1-0.03     c0.03-0.01,0.07-0.07,0.12-0.03c0.02,0-0.01,0.02,0,0.02c0.01,0,0.01,0.01,0.02,0.02c-0.01,0.01-0.02,0.02-0.04,0.03     c-0.01,0.01-0.03,0.01-0.04,0.02c-0.03,0.01-0.06,0.02-0.09,0.04c-0.02,0.01-0.04,0.02-0.06,0.03c-0.02,0.01-0.03,0.01-0.06,0.02     c-0.06,0.03-0.12,0.05-0.18,0.07c-0.06,0.02-0.11,0.05-0.17,0.08c-0.02,0.02-0.05,0.03-0.07,0.05c-0.01,0-0.02,0.01-0.02,0.02     c-0.05,0.01-0.09,0.04-0.13,0.07c0,0-0.01,0-0.01,0.01c0,0,0,0.01,0,0.01c-0.01,0-0.02,0.01-0.03,0.02c0,0-0.01,0-0.01,0.01     c0,0,0,0.01,0,0.01c-0.01,0-0.02,0.01-0.03,0.02c-0.01,0.01-0.02,0.02-0.03,0.02c0,0-0.01,0-0.01,0.01     c-0.01,0-0.01,0.01-0.02,0.02c-0.01,0.01-0.02,0.01-0.03,0.01c-0.02,0.01-0.04,0.03-0.07,0.04c0,0.01,0.01,0.03,0.01,0.04     c-0.03,0.03-0.07,0.04-0.1,0.06c-0.04,0.02-0.07,0.04-0.11,0.04c-0.01,0.03-0.02,0.06-0.03,0.08c-0.01,0.01-0.01,0.02-0.03,0.03     c0,0-0.01,0-0.01,0c0,0-0.01,0.01-0.01,0.01c-0.03,0.01-0.07,0-0.12,0.01c-0.03,0.01-0.03,0.06-0.06,0.07     c-0.03,0.01-0.06,0-0.09,0.02c-0.01,0.01-0.02,0.02-0.02,0.03c-0.01,0.01-0.01,0.02-0.02,0.04c-0.03,0.02-0.06,0.02-0.1,0.03     c-0.04,0.02-0.06,0.05-0.09,0.07c-0.03,0.02-0.06,0.05-0.09,0.07c-0.01,0.01-0.02,0.01-0.02,0.02c-0.02,0.01-0.03,0.02-0.05,0.03     c-0.01,0-0.02,0.01-0.02,0.01c-0.01,0-0.02,0.01-0.03,0.01c-0.01,0-0.02,0.01-0.03,0.01c-0.03,0.01-0.06,0.01-0.08,0.04     c0,0,0,0,0,0.01c0,0,0,0.01-0.01,0.01c0,0,0,0.01-0.01,0.02c0,0-0.01,0-0.01,0c0,0,0,0.01-0.01,0.02c0,0-0.01,0-0.01,0     c-0.01,0.02-0.03,0.04-0.05,0.05c-0.01,0.03-0.03,0.05-0.05,0.07c0.01,0.08,0,0.18,0.01,0.27c0,0.04,0.01,0.07,0.01,0.11     c0,0.04,0.01,0.07,0.01,0.1c0,0.05-0.03,0.1-0.03,0.14c0,0.01,0,0.02,0,0.03c0,0.1,0.03,0.19,0.02,0.3c0,0.04,0,0.08,0,0.12     c0.01,0.11,0.02,0.23,0.04,0.33c0.02,0.07,0.04,0.13,0.06,0.19c0.02,0.06,0.05,0.12,0.07,0.18c-0.01,0.04-0.05,0.06-0.07,0.09     c0.03,0.11,0.07,0.23,0.1,0.34c0.04,0.13,0.07,0.26,0.11,0.39c0.01,0.03,0.02,0.06,0.02,0.08c0,0.01,0.01,0.03,0.01,0.04     c0.02,0.07,0.04,0.14,0.06,0.22c0.01,0.04,0.02,0.08,0.03,0.13c0.01,0.02,0.01,0.04,0.02,0.07c0.01,0.03,0.02,0.08,0.02,0.11     c0,0.02,0,0.05,0,0.08c0,0.02,0.02,0.04,0.02,0.07c0.02,0.05,0.03,0.11,0.04,0.18c0.01,0.03,0.02,0.07,0.03,0.11     c0.01,0.02,0.02,0.04,0.02,0.06c0.01,0.02,0.01,0.04,0.02,0.07c0.01,0.02,0.01,0.05,0.02,0.07c0,0.02,0,0.05,0,0.07     c0,0.03,0.01,0.06,0.02,0.09c0.01,0.03,0.01,0.06,0.01,0.09c0.01,0.06,0.02,0.13,0.02,0.19c0,0.04,0,0.08,0,0.11     c0,0.03,0.01,0.06,0.02,0.1c0,0.01,0.01,0.02,0.01,0.03c0.01,0.03,0.01,0.07,0.01,0.1c0,0.02,0.01,0.03,0.01,0.05     c0,0.01,0,0.03,0.01,0.05c0,0,0.01,0.01,0.01,0.01c0.01,0.05,0.03,0.11,0.05,0.15c0.01,0.05,0.03,0.11,0,0.16     c0.01,0.02,0.02,0.04,0.04,0.05c0.01,0.03,0.02,0.07,0.03,0.1c0,0.01-0.02,0-0.03,0c-0.01,0,0.01,0.01,0.01,0.02     c0.01,0.01,0.02,0.01,0.02,0.02c0.03,0.01,0.05,0.02,0.07,0.04c0.01,0.01,0,0.03,0,0.04c0.01,0.01,0.01,0.05,0,0.07     c-0.01,0.01-0.04,0.01-0.06,0.02c0,0.01-0.02,0.01-0.03,0.01c-0.01,0-0.01,0.01-0.02,0.01c-0.01,0-0.02,0-0.03-0.01     c-0.02,0.02-0.06,0-0.08,0c-0.02,0-0.03,0.01-0.05,0.01c-0.02,0-0.05-0.01-0.06-0.02c0,0-0.01-0.01-0.01-0.01     c-0.01,0-0.02,0-0.03,0c-0.02,0-0.03-0.01-0.05-0.01c-0.02,0-0.04,0-0.05-0.01c-0.02-0.01-0.04-0.03-0.05-0.04     c-0.02-0.01-0.04-0.03-0.04-0.04c0-0.02,0.01-0.03,0.01-0.05c-0.03-0.01-0.07-0.02-0.1-0.03c-0.01-0.01-0.01,0.02-0.02,0.01     c-0.01-0.03-0.03-0.06-0.04-0.09c0.01-0.03,0.02-0.05,0.02-0.08c0-0.02-0.01-0.04-0.02-0.06C55,48.54,55,48.49,54.99,48.44     c-0.02-0.11-0.05-0.21-0.07-0.32c-0.02-0.11-0.03-0.22-0.06-0.33c-0.01-0.04-0.02-0.07-0.02-0.11c0-0.04,0-0.08,0-0.12     c0-0.06-0.02-0.11-0.04-0.16c-0.01-0.05-0.03-0.1-0.05-0.15c-0.01-0.07-0.01-0.14-0.03-0.21c-0.01-0.04-0.02-0.08-0.04-0.12     c0-0.01-0.01-0.03-0.01-0.05c-0.01-0.02-0.01-0.05-0.02-0.08c-0.01-0.02-0.01-0.04-0.02-0.06c-0.01-0.04-0.04-0.07-0.05-0.1     c-0.02-0.03-0.03-0.06-0.05-0.09c0-0.01-0.01-0.03-0.02-0.04c-0.01-0.04-0.03-0.08-0.04-0.12c-0.01-0.02-0.02-0.03-0.02-0.05     c0-0.01-0.01-0.01-0.01-0.02c-0.07-0.15-0.11-0.3-0.17-0.46c-0.04-0.06-0.07-0.11-0.09-0.18c-0.07,0-0.12-0.01-0.19-0.01     c-0.01,0.01-0.01,0.02-0.02,0.04c-0.03,0.05-0.05,0.1-0.08,0.15c-0.04,0.12-0.08,0.25-0.12,0.38c0,0.01,0,0.02-0.01,0.03     c-0.02,0.04-0.04,0.1-0.06,0.16c-0.02,0.05-0.03,0.11-0.05,0.16c-0.02,0.06-0.06,0.12-0.09,0.18c-0.01,0.07-0.03,0.12-0.03,0.19     c-0.02,0.04-0.04,0.09-0.06,0.13c0,0.03-0.01,0.07-0.01,0.1c0,0.04,0,0.07-0.01,0.1c0,0.03-0.02,0.05-0.02,0.07     c-0.02,0.02-0.03,0.05-0.04,0.08c0,0.01-0.01,0.02-0.01,0.03c-0.02,0.04-0.04,0.07-0.05,0.11c0,0.02,0,0.05,0,0.07     c0,0.02,0,0.05,0,0.07c0,0.03-0.01,0.06-0.02,0.09c-0.01,0.02-0.01,0.05-0.02,0.07c-0.02,0.08-0.02,0.18-0.04,0.27     c0,0.01,0,0.02,0,0.02c0,0.01-0.01,0.03-0.01,0.04c-0.02,0.05-0.04,0.12-0.06,0.19c0,0.01-0.01,0.03-0.01,0.04     c-0.01,0.05,0,0.11-0.01,0.15c0,0.02-0.01,0.03-0.02,0.05c-0.01,0.02-0.02,0.03-0.02,0.05c0,0.02,0.01,0.04,0.01,0.06     c0,0.03-0.02,0.05-0.03,0.07c0,0.01,0,0.02-0.01,0.02c-0.01,0,0-0.03-0.01-0.03c-0.02,0.01-0.04,0.01-0.05,0.02     c-0.01,0.01-0.04,0.01-0.05,0.03c0,0.02,0.01,0.03,0.01,0.05c-0.02,0.03-0.05,0.04-0.07,0.06c-0.04,0-0.07,0.02-0.11,0.02     c-0.02,0.01-0.04,0.02-0.07,0.02c-0.02,0-0.03-0.01-0.05-0.01c-0.02,0-0.03,0.01-0.04,0.01c-0.01,0-0.03,0-0.04,0     c-0.01,0-0.02,0-0.03,0c-0.02,0-0.01-0.01-0.03-0.01c-0.03,0-0.07-0.01-0.09-0.02c-0.01-0.02-0.01-0.04,0-0.07c0,0,0,0,0,0     c0,0-0.01-0.02,0-0.03c0.02-0.02,0.04-0.03,0.06-0.05c-0.01,0-0.01-0.01-0.01-0.02c0.01-0.06,0.02-0.11,0.05-0.14     c-0.02-0.06,0-0.11,0.01-0.17c0.04-0.07,0.06-0.17,0.08-0.27c0.01-0.05,0.02-0.1,0.03-0.14c0.01-0.05,0.04-0.09,0.04-0.14     c0-0.04-0.01-0.07,0-0.11c0-0.03,0.01-0.05,0.01-0.08c0.01-0.07,0.02-0.13,0.04-0.19c0-0.01,0.01-0.02,0.01-0.03     c0-0.03,0-0.05,0-0.08c0-0.05,0.02-0.1,0.04-0.15c0.02-0.05,0.03-0.1,0.04-0.15c0-0.03,0-0.06,0.01-0.09     c0.01-0.05,0.02-0.1,0.03-0.16c0-0.03,0-0.06,0.01-0.09c0-0.03,0.02-0.06,0.02-0.09c0-0.02,0.01-0.03,0.01-0.05     c0.02-0.06,0.04-0.13,0.05-0.19c0.02-0.06,0.04-0.13,0.05-0.2c0.01-0.03,0.01-0.06,0.02-0.09c0.04-0.13,0.08-0.29,0.12-0.43     c0.03-0.12,0.06-0.23,0.1-0.34c-0.02-0.03-0.06-0.05-0.08-0.08c0.03-0.1,0.09-0.21,0.12-0.33c0.02-0.07,0.04-0.15,0.05-0.23     c0-0.04,0.01-0.1,0.01-0.15c0-0.05-0.01-0.11-0.01-0.17c0-0.06,0.01-0.12,0.01-0.17c0-0.06-0.03-0.08-0.05-0.13     c-0.01-0.02-0.01-0.04-0.02-0.07c-0.01-0.05-0.01-0.1-0.02-0.16c-0.01-0.05-0.02-0.1-0.02-0.15c0-0.03-0.01-0.06-0.01-0.09     c0-0.02-0.03-0.03-0.04-0.05c-0.01-0.01-0.02-0.02-0.03-0.03c-0.01-0.01-0.03-0.03-0.04-0.05c-0.01-0.01-0.02-0.03-0.03-0.04     c0,0,0,0-0.01-0.01c0,0-0.01-0.01-0.02-0.02c-0.02-0.03-0.04-0.07-0.07-0.1c-0.03-0.01-0.05-0.02-0.08-0.03     c-0.05-0.02-0.1-0.05-0.15-0.07c-0.05-0.03-0.1-0.07-0.16-0.1c-0.03-0.01-0.08-0.02-0.11-0.03c-0.01-0.02-0.02-0.05-0.04-0.07     c-0.03-0.01-0.07-0.01-0.11-0.01c-0.02-0.02-0.04-0.06-0.05-0.08c-0.01,0-0.02-0.01-0.03-0.01c-0.04-0.01-0.07,0-0.1-0.01     c-0.01,0-0.03-0.02-0.04-0.03c-0.01-0.01-0.01-0.03-0.02-0.04c0,0-0.01,0-0.01,0c-0.01-0.01-0.02-0.03-0.03-0.05     c0-0.02,0.01-0.01,0.01-0.02c-0.04-0.01-0.07-0.03-0.1-0.05c-0.03-0.02-0.07-0.03-0.09-0.05c0-0.02,0-0.03,0-0.04     c0-0.01-0.02-0.02-0.03-0.03c-0.01-0.01-0.02-0.01-0.03-0.02c0,0,0-0.01-0.01-0.01c0,0-0.01-0.01-0.02-0.01     c-0.01-0.01-0.02-0.02-0.03-0.03c0,0-0.01,0-0.01,0c-0.01-0.01-0.03-0.02-0.05-0.04c0,0,0-0.01-0.01-0.01     c-0.01,0-0.01-0.01-0.02-0.01c0,0-0.01-0.01-0.02-0.02c0,0-0.01,0-0.01,0c0,0,0-0.01,0-0.01c-0.02-0.02-0.04-0.03-0.06-0.04     c-0.02-0.01-0.04-0.02-0.07-0.03c-0.04-0.02-0.08-0.05-0.11-0.09c-0.03-0.01-0.06-0.03-0.09-0.04c-0.01,0-0.02,0-0.03-0.01     c-0.05-0.02-0.12-0.03-0.18-0.05c-0.02-0.01-0.03-0.01-0.05-0.02c-0.01,0-0.01,0-0.01,0c-0.01,0-0.03-0.01-0.04-0.01     c-0.01,0-0.02-0.01-0.03-0.02c-0.04-0.02-0.08-0.05-0.12-0.06c0-0.01-0.01,0-0.01-0.01c0,0,0-0.01-0.01-0.01     c-0.01,0-0.01,0-0.02-0.01c-0.01-0.01-0.03-0.01-0.05-0.02c0-0.02,0.01-0.03,0.03-0.03c0-0.02-0.02-0.01-0.02-0.03     c0.02-0.02,0.04-0.02,0.07-0.01c0.02,0.01,0.04,0.02,0.06,0.03c0.06,0,0.1,0.02,0.15,0.04c0-0.01-0.01-0.01-0.01-0.01     c0,0-0.02-0.01-0.02-0.01c-0.02-0.01-0.04-0.02-0.06-0.03c-0.02-0.01-0.04-0.02-0.05-0.04c0.04-0.05,0.1-0.01,0.14,0.01     c0.03,0.01,0.06,0.03,0.07,0.04c0.03,0,0.04,0.01,0.06,0.02c0.03-0.01,0.06,0,0.08,0.01c0.02-0.01,0.03-0.01,0.03-0.03     C51.33,42,51.29,42.01,51.27,42c0,0-0.02-0.01-0.03-0.02c0,0,0,0,0,0c-0.01-0.01-0.02-0.01-0.02-0.03c0-0.01,0-0.02,0-0.03     c0.04-0.01,0.08,0,0.12,0c0.03,0.01,0.05,0.03,0.07,0.05c0.02,0.01,0.03,0.01,0.05,0.02c0.01,0,0.01,0.01,0.01,0.01     c0,0,0.01,0.01,0.01,0.01c0.01,0.01,0.02,0.02,0.03,0.02c0.01,0.02,0.01,0.05,0.02,0.07c0.01,0.02,0.04,0.04,0.05,0.06     c0.01,0.04,0.04,0.05,0.07,0.07c0.02,0.01,0.03,0.02,0.05,0.03c0.03,0.02,0.07,0.03,0.11,0.05c0.08,0.04,0.15,0.07,0.22,0.1     c0.01,0.01,0.01,0,0.02-0.01c0.01,0,0.01-0.01,0.02-0.01c0.01,0,0.04,0.01,0.06,0.02c0.05,0.02,0.09,0.04,0.13,0.06     c0.01,0.01,0.02,0.01,0.02,0.01c0.02,0.01,0.04,0,0.06,0c0.08,0.01,0.13,0.07,0.17,0.11c0.03,0.01,0.05,0.03,0.08,0.03     C52.64,42.64,52.67,42.62,52.69,42.62z"
   id="path17313" />
		</g>
	</g>
	
		<radialGradient
   id="SVGID_6_"
   cx="-119.8051"
   cy="20.2382"
   r="50.3676"
   gradientTransform="matrix(1.2673,0,0,1.0111,98.608166,111.13787)"
   gradientUnits="userSpaceOnUse">
		<stop
   offset="0"
   style="stop-color:#F15A29"
   id="stop17319" />
		<stop
   offset="0.0685"
   style="stop-color:#D34F24"
   id="stop17321" />
		<stop
   offset="0.2073"
   style="stop-color:#9C3A1A"
   id="stop17323" />
		<stop
   offset="0.3471"
   style="stop-color:#6C2812"
   id="stop17325" />
		<stop
   offset="0.485"
   style="stop-color:#451A0C"
   id="stop17327" />
		<stop
   offset="0.6205"
   style="stop-color:#270F07"
   id="stop17329" />
		<stop
   offset="0.753"
   style="stop-color:#110603"
   id="stop17331" />
		<stop
   offset="0.8811"
   style="stop-color:#040201"
   id="stop17333" />
		<stop
   offset="1"
   style="stop-color:#000000"
   id="stop17335" />
	</radialGradient>
	
</g>
</svg>
